<svg width="369" height="360" viewBox="0 0 369 360" fill="none" xmlns="http://www.w3.org/2000/svg">
<g clip-path="url(#clip0_4_308)">
<path d="M33.6954 73.3262C33.2901 71.9077 33.0874 70.4314 33.0874 69.0419C33.0874 67.6524 33.319 66.3787 33.5796 65.3365C33.8401 64.2655 34.2454 63.4549 34.5059 62.9049C34.6217 62.6444 34.7375 62.4707 34.8243 62.326C34.8822 60.647 34.9401 59.2864 34.998 58.3022C29.3242 69.0708 31.1769 75.642 34.5059 79.4921C34.5059 78.0737 34.5059 76.7421 34.5348 75.4394C34.2164 74.7736 33.9269 74.0499 33.6664 73.3262H33.6954Z" fill="#B29E79"/>
<path d="M334.465 62.9049C334.726 63.4549 335.131 64.2944 335.391 65.3365C335.652 66.3787 335.912 67.6524 335.883 69.0419C335.883 70.4314 335.681 71.8788 335.276 73.3262C335.044 74.0499 334.755 74.7736 334.407 75.4394C334.407 76.7421 334.407 78.0737 334.436 79.4921C337.765 75.6131 339.618 69.0708 333.944 58.3022C334.002 59.2864 334.06 60.647 334.118 62.326C334.204 62.4707 334.291 62.6733 334.436 62.9049H334.465Z" fill="#B29E79"/>
<path d="M34.1875 65.4813C34.0138 66.5234 33.9849 67.7392 34.0138 69.0419C34.0428 70.1709 34.2743 71.3288 34.5638 72.4578C34.6217 68.4919 34.7086 65.1629 34.8244 62.5865C34.7954 62.7023 34.7665 62.847 34.7086 62.9918C34.5059 63.5707 34.3322 64.4392 34.1585 65.4813H34.1875Z" fill="#B29E79"/>
<path d="M104.241 25.9383C105.891 24.8673 107.484 23.8541 109.076 22.8988C109.163 23.333 109.481 24.7804 110.292 26.4015C110.784 26.3147 111.305 26.2278 111.826 26.141C111.536 25.6778 111.305 25.2436 111.16 24.9252C110.986 24.4909 110.899 24.2594 110.899 24.2594C110.899 24.2594 111.044 24.4909 111.305 24.8673C111.507 25.1857 111.855 25.6199 112.26 26.0831C112.723 25.9962 113.215 25.9094 113.678 25.8225C113.534 25.6489 113.447 25.562 113.447 25.562C113.447 25.562 113.563 25.6199 113.794 25.7357C113.794 25.7357 113.852 25.7646 113.881 25.7936C116.226 25.3883 118.6 25.012 121.031 24.6357C118.455 21.7988 115.705 19.7724 110.234 22.1751C116.371 18.5277 122.102 15.6907 127.139 13.4618C130.439 11.9275 133.508 10.8564 136.113 9.78536C138.776 8.85902 141.034 8.01953 142.916 7.44057C146.65 6.3116 148.648 5.70369 148.648 5.70369C148.648 5.70369 146.621 6.16686 142.8 7.0353C140.89 7.49847 138.574 8.16427 135.824 8.88797C133.132 9.75641 129.947 10.6538 126.531 11.9854C121.755 13.7512 116.313 16.0092 110.436 18.9329C114.952 15.8934 114.373 12.217 113.65 8.13533C112.81 3.38786 115.184 0.290421 115.184 0.290421C98.1334 8.4827 107.049 19.3671 107.802 20.2645C106.065 21.1619 104.299 22.1172 102.476 23.1593C98.7124 25.2436 94.8913 27.7331 90.9833 30.3963C94.1097 29.6726 97.3808 28.9489 100.797 28.2542C101.926 27.4436 103.084 26.691 104.213 25.9673L104.241 25.9383ZM110.407 6.89056C110.321 7.12215 110.263 7.46952 110.147 7.87479C110.031 8.28007 109.915 8.74323 109.771 9.23535C109.626 9.72746 109.51 10.2485 109.394 10.7985C109.249 11.3196 109.134 11.8696 109.047 12.3617C108.96 12.8538 108.844 13.346 108.786 13.7512C108.728 14.1565 108.642 14.5039 108.613 14.7355C108.555 14.967 108.526 15.1118 108.526 15.1118C108.526 15.1118 108.526 14.967 108.439 14.7355C108.41 14.5039 108.352 14.1276 108.323 13.7223C108.323 13.2881 108.323 12.796 108.352 12.2749C108.41 11.7538 108.497 11.1749 108.613 10.6249C108.757 10.0748 108.931 9.52483 109.105 9.03271C109.278 8.5406 109.539 8.10638 109.713 7.73005C109.915 7.35373 110.118 7.06425 110.263 6.86161C110.407 6.65898 110.494 6.54319 110.494 6.54319C110.494 6.54319 110.465 6.68793 110.407 6.91951V6.89056ZM107.57 17.3118C107.368 16.9066 107.078 16.2987 106.876 15.4881C106.673 14.7065 106.499 13.7802 106.499 12.7381C106.499 11.7249 106.644 10.6249 106.934 9.58272C107.281 8.5406 107.744 7.55637 108.294 6.71687C108.844 5.87738 109.51 5.21158 110.118 4.66157C110.726 4.1405 111.305 3.79313 111.681 3.56154C112.086 3.32996 112.318 3.24312 112.318 3.24312C112.318 3.24312 112.115 3.38786 111.768 3.70628C111.421 3.99576 110.957 4.42998 110.407 5.00894C109.886 5.55895 109.365 6.3116 108.844 7.12215C108.352 7.93269 107.918 8.85902 107.657 9.84326C107.339 10.7985 107.194 11.8117 107.136 12.767C107.107 13.7223 107.136 14.6197 107.252 15.4013C107.368 16.1539 107.513 16.8197 107.657 17.2539C107.773 17.6882 107.86 17.9487 107.86 17.9487C107.86 17.9487 107.715 17.7171 107.513 17.3118H107.57Z" fill="#B29E79"/>
<path d="M58.2146 38.8781C58.7067 38.0097 59.2567 37.3728 59.633 36.9386C60.0093 36.5044 60.2699 36.3017 60.2699 36.3017C60.2699 36.3017 60.0962 36.5623 59.8067 37.0544C59.4883 37.5465 59.1409 38.2702 58.7356 39.1386C58.6488 39.3123 58.5909 39.5439 58.504 39.7465C59.7777 39.3123 61.1383 38.8492 62.5568 38.357C61.4857 34.507 62.4699 31.5543 62.4699 31.5543C59.1119 34.9122 57.0277 37.9228 55.8408 40.6729C56.4198 40.4702 57.0277 40.2387 57.6356 40.036C57.8382 39.6018 58.0409 39.2255 58.2146 38.8492V38.8781Z" fill="#B29E79"/>
<path d="M237.403 340.371C239.747 341.761 241.861 343.179 243.655 344.395C245.479 345.582 246.897 346.711 247.911 347.464C248.924 348.245 249.474 348.68 249.474 348.68C249.474 348.68 248.837 348.332 247.708 347.753C246.608 347.145 245.016 346.277 243.105 345.235C241.224 344.164 238.966 343.035 236.621 341.703C235.724 341.211 234.797 340.719 233.842 340.227C231.352 341.356 228.863 342.427 226.286 343.382C227.792 344.135 229.21 344.858 230.571 345.582C232.076 346.422 233.523 347.232 234.855 347.985C236.187 348.766 237.374 349.577 238.474 350.33C240.703 351.835 242.324 353.456 243.684 354.672C246.232 357.335 247.303 359.014 247.303 359.014L258.448 345.148C258.448 345.148 256.219 344.279 252.513 342.282C250.603 341.385 248.345 340.082 245.711 338.692C244.379 337.998 242.989 337.187 241.513 336.348C239.603 337.419 237.634 338.403 235.666 339.358C236.245 339.677 236.824 340.024 237.403 340.342V340.371Z" fill="#B29E79"/>
<path d="M106.094 325.174C103.778 325.839 101.376 326.158 99.1466 326.187C96.8887 326.187 94.8334 325.782 93.1254 325.347C91.3886 324.884 90.057 324.247 89.1306 323.784C88.2332 323.292 87.7411 322.974 87.7411 322.974C87.7411 322.974 88.2911 323.176 89.2754 323.437C90.2306 323.755 91.6491 324.045 93.3281 324.334C95.0071 324.624 97.0045 324.682 99.1177 324.595C101.231 324.508 103.46 324.132 105.573 323.437C106.355 323.205 107.136 322.916 107.86 322.626C107.165 322.018 106.47 321.41 105.805 320.774C105.805 320.774 105.805 320.774 105.776 320.774C104.589 321.179 103.373 321.526 102.244 321.816C101.115 322.105 100.015 322.192 99.0887 322.308C98.1624 322.424 97.3808 322.366 96.8308 322.366C96.2808 322.337 95.9624 322.308 95.9624 322.308C95.9624 322.308 96.2518 322.192 96.7729 322.018C97.294 321.874 98.0177 321.584 98.8861 321.324C99.7545 321.092 100.739 320.658 101.839 320.339C102.649 320.079 103.489 319.76 104.357 319.413C102.302 317.502 100.305 315.534 98.3361 313.45C97.9308 313.016 97.5545 312.581 97.1782 312.176C96.4255 312.9 95.6729 313.623 94.9202 314.347C87.3359 321.816 78.7094 321.266 78.7094 321.266C94.8334 330.876 105.515 330.24 112.492 326.361C111.45 325.55 110.407 324.682 109.394 323.813C108.352 324.334 107.281 324.768 106.152 325.145L106.094 325.174Z" fill="#B29E79"/>
<path d="M81.4016 31.0042C81.0542 30.1648 80.6779 29.1226 80.5332 27.9647C80.3595 26.8068 80.3595 25.562 80.5332 24.3173C80.7358 23.0725 81.1121 21.8856 81.6043 20.8435C82.0964 19.7724 82.7332 18.904 83.3122 18.2092C83.8912 17.5145 84.4991 17.0224 84.9043 16.7039C85.3385 16.3855 85.5701 16.2118 85.5701 16.2118C85.5701 16.2118 85.3675 16.4145 85.0201 16.8197C84.6727 17.1961 84.2096 17.804 83.7175 18.5277C83.2253 19.2514 82.7332 20.1777 82.299 21.1909C81.8648 22.2041 81.5464 23.333 81.4016 24.4909C81.199 25.6489 81.199 26.8068 81.3148 27.9068C81.4306 29.0068 81.6043 30.02 81.8937 30.8595C82.0964 31.5253 82.299 32.0753 82.5016 32.5385C84.4701 32.0174 86.4965 31.5253 88.5807 31.0042C89.9992 27.9068 89.0439 24.8383 87.9439 21.5093C86.207 16.2987 88.3781 12.3617 88.3781 12.3617C75.8147 20.9014 77.87 28.7752 80.5911 33.0306C81.1411 32.8859 81.6911 32.7411 82.2411 32.5964C81.9806 32.1911 81.6622 31.67 81.4016 31.0332V31.0042ZM84.0069 20.6409C83.949 20.9303 83.9201 21.3067 83.8622 21.7988C83.7754 22.262 83.7464 22.812 83.6596 23.3909C83.5727 23.9699 83.5148 24.6067 83.4859 25.2146C83.428 25.8226 83.3701 26.4594 83.3411 27.0384C83.3411 27.6173 83.2543 28.1673 83.2543 28.6595C83.2543 29.1226 83.1964 29.5279 83.1964 29.8174C83.1964 30.1069 83.1964 30.2516 83.1964 30.2516C83.1964 30.2516 83.1385 30.1069 83.0517 29.8174C82.9648 29.5568 82.849 29.1516 82.7622 28.6884C82.6753 28.1963 82.5885 27.6463 82.5595 27.0384C82.5595 26.4305 82.5595 25.7936 82.5595 25.1278C82.6464 24.4909 82.7332 23.8251 82.849 23.2462C82.9648 22.6383 83.1675 22.1172 83.3411 21.654C83.4859 21.1909 83.6885 20.8435 83.8043 20.583C83.949 20.3224 84.0069 20.2066 84.0069 20.2066C84.0069 20.2066 84.0069 20.3803 83.949 20.6409H84.0069Z" fill="#B29E79"/>
<path d="M287.135 30.8305C287.396 29.9911 287.598 28.9489 287.714 27.8779C287.83 26.7778 287.801 25.6199 287.627 24.462C287.482 23.3041 287.164 22.1751 286.73 21.1619C286.296 20.1487 285.832 19.2514 285.311 18.4987C284.819 17.775 284.356 17.1671 284.009 16.7908C283.661 16.3855 283.459 16.1829 283.459 16.1829C283.459 16.1829 283.719 16.3566 284.125 16.675C284.53 16.9934 285.138 17.4855 285.717 18.1803C286.296 18.875 286.961 19.7724 287.425 20.8145C287.917 21.8567 288.293 23.0725 288.496 24.2883C288.669 25.5331 288.64 26.7778 288.496 27.9357C288.322 29.0937 287.975 30.1358 287.627 30.9753C287.367 31.6121 287.048 32.1332 286.788 32.5385C287.338 32.6832 287.888 32.828 288.438 32.9727C291.159 28.7173 293.214 20.8724 280.651 12.3038C280.651 12.3038 282.822 16.2118 281.085 21.4514C279.985 24.7804 279.001 27.8489 280.448 30.9463C282.532 31.4385 284.588 31.9595 286.527 32.4806C286.73 32.0464 286.904 31.4674 287.135 30.8016V30.8305ZM285.977 29.8463C285.89 30.1068 285.832 30.2805 285.832 30.2805C285.832 30.2805 285.832 30.1068 285.832 29.8463C285.832 29.5568 285.804 29.1516 285.775 28.6884C285.775 28.2252 285.717 27.6752 285.688 27.0673C285.688 26.4883 285.63 25.8515 285.543 25.2436C285.514 24.6067 285.456 23.9988 285.369 23.4199C285.282 22.8409 285.253 22.2909 285.167 21.8277C285.109 21.3646 285.08 20.9593 285.022 20.6698C284.993 20.3803 284.964 20.2356 284.964 20.2356C284.964 20.2356 285.051 20.3803 285.167 20.6119C285.282 20.8724 285.485 21.2198 285.63 21.683C285.775 22.1461 285.977 22.6672 286.122 23.2751C286.238 23.883 286.354 24.5199 286.411 25.1567C286.44 25.7936 286.44 26.4594 286.411 27.0673C286.411 27.6752 286.296 28.2542 286.209 28.7173C286.122 29.2095 286.006 29.5858 285.919 29.8463H285.977Z" fill="#B29E79"/>
<path d="M356.321 183.85C352.181 183.907 348.273 183.994 345.031 185.818C345.986 179.189 346.536 172.531 346.681 165.873C346.739 162.862 346.681 159.852 346.594 156.841C353.194 157.391 366.482 155.538 366.308 131.512C366.308 131.512 363.558 137.128 356.263 139.241C352.094 140.428 348.215 141.614 345.726 144.799C344.713 135.506 342.947 126.388 340.486 117.732C345.494 117.269 360.258 113.882 353.802 90.2318C353.802 90.2318 352.673 95.9056 346.681 99.5241C342.455 102.072 338.663 104.445 337.939 109.598C336.81 106.327 335.565 103.143 334.234 99.9873C334.002 108.295 333.568 117.472 332.873 127.285C333.915 132.785 334.697 138.372 335.16 144.075C334.147 143.033 332.989 142.251 331.686 141.614C331.397 144.712 331.078 147.867 330.702 151.052C330.876 151.196 331.049 151.312 331.194 151.399C331.512 151.63 331.686 151.775 331.686 151.775C331.686 151.775 331.455 151.717 331.078 151.63C330.962 151.602 330.789 151.544 330.644 151.486C330.557 152.152 330.499 152.817 330.412 153.483C330.702 153.599 330.991 153.686 331.281 153.773C332.468 154.12 333.452 154.352 334.176 154.467C334.899 154.583 335.305 154.641 335.305 154.641C335.305 154.641 334.899 154.699 334.147 154.728C333.423 154.728 332.352 154.728 331.107 154.496C330.847 154.438 330.586 154.381 330.297 154.323C330.21 155.133 330.094 155.973 330.007 156.783C332.12 157.131 334.089 157.044 335.623 156.87C335.623 159.794 335.565 162.718 335.391 165.67C335.015 171.634 334.291 177.655 333.22 183.647C331.947 180.926 329.718 179.015 327.112 177.307C326.533 180.81 325.925 184.313 325.289 187.844C325.375 187.96 325.462 188.076 325.549 188.163C326.012 188.713 326.36 189.205 326.62 189.523C326.881 189.871 327.025 190.073 327.025 190.073C327.025 190.073 326.823 189.958 326.446 189.726C326.128 189.494 325.636 189.205 325.115 188.8C324.97 189.552 324.825 190.305 324.681 191.058C325.173 191.434 325.636 191.752 326.099 192.042C327.228 192.737 328.241 193.287 328.965 193.576C329.689 193.923 330.094 194.068 330.094 194.068C330.094 194.068 329.631 194.01 328.878 193.837C328.097 193.634 326.997 193.345 325.752 192.737C325.346 192.534 324.941 192.302 324.507 192.071C324.333 192.997 324.16 193.923 323.957 194.821C326.302 195.863 328.589 196.355 330.297 196.587C328.878 201.855 327.17 207.066 325.173 212.161C323.552 216.387 321.728 220.527 319.76 224.55C319.47 222.9 318.862 221.395 318.052 219.977C312.175 241.717 304.301 262.964 293.677 281.781C293.822 281.896 293.967 282.012 294.17 282.128C294.922 282.707 296.051 283.402 297.441 284.154C298.83 284.907 300.538 285.573 302.391 286.152C304.243 286.731 306.299 287.078 308.354 287.107C310.409 287.223 312.494 287.02 314.375 286.586C316.257 286.152 318.023 285.602 319.441 284.965C320.86 284.299 322.046 283.691 322.828 283.17C323.639 282.678 324.073 282.389 324.073 282.389C324.073 282.389 323.696 282.794 323.002 283.431C322.307 284.068 321.265 284.965 319.846 285.775C318.428 286.586 316.691 287.454 314.694 287.976C312.696 288.497 310.496 288.786 308.267 288.757C306.067 288.641 303.867 288.178 301.928 287.512C299.959 286.847 298.309 285.862 296.92 284.936C295.559 284.01 294.575 283.054 293.909 282.36C293.764 282.215 293.648 282.07 293.533 281.954C293.041 282.823 292.548 283.72 292.027 284.589C298.049 291.102 311.451 299.526 331.715 278.683C331.715 278.683 324.189 281.26 315.678 276.454C311.828 274.283 308.151 272.257 304.272 271.823C307.167 268.696 309.946 265.454 312.58 262.067C317.038 256.422 321.062 250.43 324.739 244.148C331.599 248.49 345.523 252.804 358.637 229.356C358.637 229.356 352.558 233.466 343.844 231.237C339.705 230.166 335.826 229.24 332.091 229.964C334.06 225.622 335.884 221.221 337.476 216.735C339.386 211.234 340.978 205.647 342.281 200.003C349.402 202.203 362.776 202.695 368.942 178.668C368.942 178.668 364.484 183.792 356.263 183.908L356.321 183.85ZM350.444 151.312C350.763 151.08 351.197 150.733 351.718 150.357C352.268 149.98 352.847 149.459 353.484 148.996C354.121 148.504 354.816 147.954 355.452 147.404C356.147 146.883 356.784 146.304 357.392 145.754C357.971 145.204 358.579 144.712 359.071 144.249C359.534 143.786 359.997 143.438 360.258 143.178C360.547 142.917 360.721 142.772 360.721 142.772C360.721 142.772 360.634 142.975 360.46 143.322C360.258 143.67 360.026 144.191 359.621 144.712C359.216 145.262 358.781 145.899 358.202 146.536C357.623 147.144 356.958 147.78 356.292 148.388C355.568 148.938 354.844 149.459 354.121 149.923C353.426 150.386 352.702 150.704 352.094 150.994C351.487 151.283 350.937 151.428 350.56 151.544C350.184 151.659 349.952 151.717 349.952 151.717C349.952 151.717 350.126 151.573 350.444 151.341V151.312ZM347.463 154.381C348.186 154.294 349.2 154.033 350.358 153.686C351.544 153.338 352.847 152.731 354.179 152.007C355.51 151.283 356.842 150.328 357.971 149.199C359.158 148.099 360.2 146.854 361.01 145.551C361.821 144.249 362.487 142.975 362.921 141.817C363.355 140.659 363.674 139.646 363.818 138.951C363.992 138.228 364.079 137.822 364.079 137.822C364.079 137.822 364.079 138.257 364.079 138.98C364.021 139.733 363.963 140.804 363.616 142.049C363.268 143.293 362.776 144.741 361.966 146.13C361.155 147.549 360.113 148.938 358.868 150.154C357.595 151.312 356.147 152.296 354.7 153.02C353.252 153.744 351.805 154.12 350.56 154.381C349.315 154.641 348.244 154.641 347.521 154.641C346.797 154.641 346.363 154.583 346.363 154.583C346.363 154.583 346.768 154.525 347.492 154.41L347.463 154.381ZM344.365 111.624C344.597 111.364 344.886 110.93 345.263 110.466C345.668 110.003 346.044 109.424 346.507 108.845C346.971 108.266 347.434 107.601 347.897 106.935C348.389 106.298 348.823 105.632 349.229 104.995C349.634 104.358 350.039 103.779 350.358 103.258C350.676 102.737 350.994 102.332 351.168 102.014C351.371 101.724 351.487 101.55 351.487 101.55C351.487 101.55 351.458 101.753 351.371 102.1C351.284 102.448 351.168 102.969 350.937 103.548C350.705 104.127 350.473 104.822 350.097 105.516C349.721 106.211 349.286 106.906 348.823 107.601C348.331 108.266 347.781 108.903 347.26 109.482C346.739 110.061 346.16 110.524 345.697 110.93C345.234 111.335 344.771 111.595 344.481 111.798C344.163 111.972 343.989 112.088 343.989 112.088C343.989 112.088 344.105 111.914 344.336 111.624H344.365ZM342.426 115.069C343.034 114.809 343.873 114.345 344.828 113.738C345.784 113.13 346.797 112.29 347.81 111.335C348.823 110.38 349.779 109.193 350.531 107.919C351.342 106.674 351.95 105.285 352.355 103.953C352.76 102.622 353.05 101.319 353.166 100.161C353.281 99.032 353.339 98.0767 353.281 97.382C353.281 96.7162 353.252 96.3109 353.252 96.3109C353.252 96.3109 353.368 96.6872 353.513 97.353C353.658 98.0188 353.831 99.0031 353.831 100.19C353.831 101.377 353.716 102.766 353.339 104.214C352.963 105.661 352.326 107.137 351.515 108.527C350.647 109.887 349.605 111.074 348.476 112.059C347.376 113.043 346.16 113.738 345.118 114.288C344.076 114.809 343.121 115.069 342.455 115.243C341.789 115.388 341.413 115.446 341.413 115.446C341.413 115.446 341.76 115.301 342.368 115.011L342.426 115.069ZM304.475 282.736C305.488 282.881 306.588 283.025 307.688 283.112C308.788 283.257 309.888 283.344 310.93 283.402C311.973 283.431 312.928 283.575 313.767 283.575C314.607 283.575 315.33 283.691 315.823 283.691C316.315 283.72 316.604 283.749 316.604 283.749C316.604 283.749 316.344 283.836 315.852 284.01C315.359 284.125 314.665 284.386 313.825 284.502C312.986 284.646 311.973 284.82 310.901 284.82C309.83 284.82 308.672 284.82 307.515 284.733C306.386 284.56 305.228 284.357 304.186 284.125C303.143 283.894 302.188 283.518 301.378 283.228C300.567 282.939 299.93 282.562 299.496 282.331C299.062 282.07 298.801 281.925 298.801 281.925C298.801 281.925 299.091 281.954 299.583 282.012C300.075 282.099 300.799 282.157 301.609 282.302C302.42 282.475 303.404 282.533 304.446 282.707L304.475 282.736ZM349.2 237.838C350.329 236.911 351.226 236.072 351.805 235.435C352.413 234.827 352.731 234.422 352.731 234.422C352.731 234.422 352.5 234.856 352.037 235.609C351.544 236.332 350.85 237.403 349.779 238.474C348.708 239.546 347.376 240.732 345.697 241.688C344.047 242.643 342.165 243.425 340.168 243.946C338.17 244.38 336.144 244.496 334.234 244.38C332.323 244.264 330.615 243.772 329.197 243.309C327.778 242.817 326.678 242.18 325.925 241.746C325.173 241.282 324.796 240.993 324.796 240.993C324.796 240.993 325.26 241.196 326.07 241.485C326.852 241.803 328.039 242.151 329.457 242.498C330.876 242.846 332.555 243.019 334.32 243.077C336.115 243.135 338.026 242.932 339.849 242.469C341.702 242.064 343.497 241.398 345.089 240.559C346.652 239.719 348.1 238.822 349.229 237.867L349.2 237.838ZM332.786 239.864C333.568 239.806 334.436 239.632 335.391 239.546C336.347 239.43 337.36 239.285 338.344 239.082C339.357 238.938 340.342 238.764 341.297 238.561C342.223 238.33 343.121 238.214 343.873 238.04C344.626 237.867 345.263 237.751 345.726 237.664C346.189 237.577 346.45 237.519 346.45 237.519C346.45 237.519 346.218 237.664 345.842 237.924C345.436 238.156 344.886 238.532 344.163 238.851C343.439 239.169 342.599 239.574 341.644 239.864C340.689 240.153 339.676 240.385 338.634 240.617C337.591 240.761 336.52 240.848 335.536 240.877C334.552 240.906 333.626 240.819 332.844 240.732C332.062 240.674 331.397 240.501 330.962 240.385C330.528 240.269 330.268 240.182 330.268 240.182C330.268 240.182 330.528 240.153 330.991 240.067C331.455 240.038 332.091 239.922 332.873 239.835L332.786 239.864ZM346.855 194.908C347.26 194.763 347.81 194.502 348.476 194.242C349.142 194.01 349.894 193.634 350.705 193.316C351.515 192.997 352.384 192.621 353.223 192.187C354.092 191.81 354.931 191.434 355.713 191.029C356.495 190.623 357.247 190.305 357.884 189.929C358.521 189.581 359.071 189.35 359.418 189.147C359.795 188.973 360.026 188.858 360.026 188.858C360.026 188.858 359.852 189.031 359.592 189.379C359.302 189.668 358.897 190.16 358.318 190.594C357.739 191.058 357.102 191.608 356.321 192.1C355.539 192.563 354.671 193.055 353.802 193.489C352.905 193.866 351.979 194.213 351.11 194.473C350.242 194.763 349.402 194.879 348.679 194.995C347.955 195.139 347.347 195.11 346.913 195.139C346.479 195.139 346.247 195.139 346.247 195.139C346.247 195.139 346.479 195.052 346.855 194.879V194.908ZM364.571 185.847C364.31 186.6 363.934 187.729 363.239 188.944C362.545 190.131 361.618 191.521 360.374 192.766C359.129 194.01 357.624 195.168 356.002 196.095C354.323 196.963 352.558 197.571 350.821 197.918C349.113 198.266 347.463 198.266 346.102 198.179C344.713 198.092 343.613 197.803 342.831 197.571C342.078 197.339 341.644 197.166 341.644 197.166C341.644 197.166 342.107 197.224 342.889 197.31C343.671 197.397 344.8 197.426 346.131 197.397C347.463 197.368 348.997 197.108 350.589 196.731C352.181 196.355 353.831 195.718 355.366 194.879C356.929 194.068 358.347 193.055 359.563 191.897C360.75 190.768 361.821 189.61 362.603 188.51C363.384 187.41 363.992 186.455 364.339 185.76C364.716 185.065 364.918 184.631 364.918 184.631C364.918 184.631 364.832 185.065 364.571 185.847Z" fill="#B29E79"/>
<path d="M334.812 65.4813C334.639 64.4392 334.465 63.5707 334.262 62.9918C334.233 62.847 334.175 62.7023 334.146 62.5865C334.233 65.1629 334.32 68.4919 334.407 72.4578C334.725 71.3288 334.928 70.1419 334.957 69.0419C335.015 67.7392 334.957 66.5234 334.783 65.4813H334.812Z" fill="#B29E79"/>
<path d="M264.672 319.442C265.511 319.789 266.351 320.079 267.19 320.368C268.261 320.687 269.245 321.121 270.143 321.353C271.011 321.613 271.735 321.903 272.256 322.047C272.777 322.221 273.066 322.337 273.066 322.337C273.066 322.337 272.748 322.337 272.198 322.395C271.648 322.395 270.866 322.453 269.94 322.337C269.014 322.221 267.914 322.134 266.785 321.845C265.656 321.555 264.44 321.208 263.253 320.803C263.253 320.803 263.253 320.803 263.224 320.803C262.529 321.41 261.864 322.047 261.169 322.655C261.922 322.974 262.674 323.234 263.456 323.466C265.598 324.161 267.827 324.537 269.94 324.624C272.053 324.711 274.051 324.624 275.73 324.363C277.409 324.074 278.827 323.784 279.782 323.466C280.767 323.205 281.317 323.003 281.317 323.003C281.317 323.003 280.825 323.321 279.927 323.813C279.001 324.276 277.669 324.913 275.932 325.376C274.224 325.811 272.14 326.245 269.911 326.216C267.682 326.216 265.279 325.868 262.964 325.203C261.835 324.826 260.764 324.392 259.721 323.871C258.679 324.739 257.666 325.608 256.624 326.418C263.572 330.297 274.253 330.934 290.406 321.324C290.406 321.324 281.78 321.874 274.195 314.405C273.443 313.652 272.69 312.929 271.938 312.234C271.532 312.668 271.156 313.102 270.78 313.508C268.811 315.592 266.785 317.56 264.758 319.471L264.672 319.442Z" fill="#B29E79"/>
<path d="M310.322 39.1097C309.917 38.2412 309.57 37.4886 309.251 37.0254C308.962 36.5333 308.788 36.2728 308.788 36.2728C308.788 36.2728 309.02 36.5044 309.425 36.9096C309.801 37.3439 310.351 37.9807 310.843 38.8492C311.046 39.1965 311.249 39.6018 311.422 40.036C312.03 40.2387 312.638 40.4702 313.217 40.6729C312.03 37.9518 309.946 34.9122 306.588 31.5543C306.588 31.5543 307.572 34.507 306.501 38.357C307.92 38.8202 309.28 39.2834 310.554 39.7465C310.467 39.5439 310.409 39.3123 310.322 39.1386V39.1097Z" fill="#B29E79"/>
<path d="M124.158 345.698C120.858 347.261 118.947 348.158 118.947 348.158C118.947 348.158 120.771 347.145 123.984 345.379C126.647 343.99 130.237 342.079 134.579 339.966C132.177 338.837 129.774 337.65 127.429 336.377C125.953 337.216 124.563 338.027 123.232 338.721C120.568 340.111 118.339 341.413 116.429 342.311C112.724 344.337 110.495 345.177 110.495 345.177L121.639 359.043C121.639 359.043 122.711 357.364 125.258 354.701C126.619 353.485 128.24 351.864 130.469 350.358C131.569 349.606 132.756 348.795 134.087 348.014C135.419 347.261 136.866 346.45 138.371 345.611C139.703 344.887 141.15 344.164 142.656 343.411C140.282 342.542 137.966 341.558 135.65 340.516C130.932 342.571 126.966 344.366 124.129 345.727L124.158 345.698Z" fill="#B29E79"/>
<path d="M75.0332 282.302C74.3674 282.968 73.3832 283.952 72.0226 284.878C70.6621 285.775 68.9831 286.76 67.0146 287.454C65.0751 288.12 62.875 288.583 60.675 288.699C58.446 288.728 56.246 288.439 54.2485 287.918C52.2511 287.397 50.5143 286.528 49.0958 285.718C47.6774 284.907 46.6352 283.981 45.9405 283.373C45.2457 282.736 44.8694 282.331 44.8694 282.331C44.8694 282.331 45.3036 282.649 46.1142 283.112C46.8958 283.633 48.0826 284.241 49.5011 284.907C50.9485 285.573 52.6854 286.094 54.567 286.528C56.4486 286.962 58.5328 287.165 60.5882 287.049C62.6435 287.02 64.6988 286.673 66.5514 286.094C68.4041 285.515 70.112 284.849 71.5015 284.097C72.8911 283.344 74.02 282.649 74.7727 282.07C74.9464 281.954 75.12 281.839 75.2648 281.723C64.6698 262.907 56.767 241.659 50.8906 219.919C50.08 221.337 49.4721 222.843 49.1826 224.493C47.2142 220.44 45.3905 216.3 43.7694 212.103C41.772 207.037 40.093 201.826 38.6456 196.529C40.3535 196.297 42.6404 195.834 44.9852 194.763C44.8115 193.837 44.6378 192.91 44.4352 192.013C44.001 192.245 43.5957 192.476 43.1904 192.679C41.9457 193.287 40.8167 193.576 40.064 193.779C39.2824 193.952 38.8482 194.01 38.8482 194.01C38.8482 194.01 39.2824 193.837 40.0061 193.518C40.7298 193.229 41.7141 192.679 42.872 191.984C43.3352 191.695 43.7983 191.376 44.2904 191C44.1457 190.247 44.001 189.494 43.8562 188.742C43.3352 189.147 42.843 189.466 42.5246 189.668C42.1483 189.871 41.9457 190.016 41.9457 190.016C41.9457 190.016 42.0904 189.813 42.3509 189.466C42.6404 189.147 42.9878 188.655 43.422 188.105C43.5088 188.018 43.5957 187.873 43.6825 187.787C43.0167 184.255 42.4088 180.752 41.8588 177.249C39.2535 178.957 37.0534 180.868 35.7508 183.589C34.6797 177.597 33.9271 171.576 33.5797 165.612C33.406 162.66 33.3481 159.736 33.3481 156.812C34.8823 156.986 36.8508 157.073 38.964 156.725C38.8772 155.915 38.7614 155.075 38.6745 154.265C38.414 154.323 38.1245 154.381 37.864 154.438C36.6192 154.67 35.5481 154.67 34.8244 154.67C34.1007 154.641 33.6665 154.583 33.6665 154.583C33.6665 154.583 34.0718 154.554 34.7955 154.41C35.5192 154.323 36.5324 154.062 37.6903 153.715C37.9798 153.628 38.2693 153.541 38.5587 153.425C38.4719 152.759 38.414 152.094 38.3272 151.428C38.1824 151.486 38.0087 151.515 37.8929 151.573C37.5166 151.659 37.285 151.717 37.285 151.717C37.285 151.717 37.4587 151.573 37.7771 151.341C37.9219 151.254 38.0956 151.109 38.2693 150.994C37.9219 147.809 37.6035 144.654 37.285 141.557C35.9824 142.193 34.8244 142.975 33.8113 144.017C34.2744 138.343 35.056 132.727 36.0982 127.227C35.4034 117.414 34.9692 108.237 34.7376 99.9294C33.406 103.056 32.1612 106.24 31.0323 109.54C30.3086 104.387 26.4874 102.014 22.29 99.4662C16.2977 95.8477 15.1688 90.1739 15.1688 90.1739C8.71336 113.853 23.4768 117.211 28.4848 117.675C26.0243 126.359 24.2584 135.449 23.2453 144.741C20.7557 141.557 16.9056 140.37 12.7082 139.183C5.41329 137.099 2.66323 131.454 2.66323 131.454C2.48954 155.481 15.7767 157.333 22.3768 156.783C22.261 159.794 22.2321 162.804 22.29 165.815C22.4347 172.473 22.9847 179.16 23.94 185.76C20.6978 183.936 16.7899 183.85 12.6503 183.792C4.40011 183.676 -0.0289307 178.552 -0.0289307 178.552C6.10804 202.55 19.511 202.087 26.6322 199.887C27.9348 205.532 29.527 211.119 31.4375 216.619C33.0297 221.106 34.8534 225.506 36.8219 229.848C33.0876 229.124 29.2085 230.08 25.069 231.122C16.3846 233.351 10.2766 229.24 10.2766 229.24C23.39 252.688 37.314 248.404 44.1746 244.032C47.8221 250.285 51.8748 256.306 56.3328 261.951C58.996 265.309 61.775 268.58 64.6409 271.707C60.7329 272.141 57.0854 274.167 53.2354 276.338C44.7247 281.144 37.1982 278.567 37.1982 278.567C57.4618 299.41 70.8647 291.015 76.8859 284.473C76.3648 283.604 75.8727 282.707 75.3806 281.839C75.2648 281.954 75.149 282.099 75.0043 282.244L75.0332 282.302ZM17.832 101.985C18.0057 102.303 18.3241 102.708 18.6425 103.229C18.9609 103.751 19.3662 104.329 19.7715 104.966C20.1768 105.603 20.6399 106.269 21.1031 106.906C21.5373 107.572 22.0294 108.209 22.4926 108.816C22.9558 109.395 23.361 110.003 23.7374 110.438C24.1137 110.901 24.4032 111.335 24.6348 111.595C24.8374 111.885 24.9821 112.059 24.9821 112.059C24.9821 112.059 24.8084 111.943 24.49 111.769C24.2005 111.566 23.7374 111.306 23.2742 110.901C22.811 110.495 22.2321 110.032 21.711 109.453C21.1899 108.874 20.6689 108.237 20.1478 107.572C19.6846 106.877 19.2504 106.153 18.8741 105.487C18.4978 104.793 18.2662 104.098 18.0346 103.519C17.803 102.94 17.7162 102.419 17.6004 102.072C17.5425 101.724 17.4846 101.522 17.4846 101.522C17.4846 101.522 17.6004 101.695 17.803 101.985H17.832ZM26.4874 115.243C25.8506 115.069 24.8953 114.809 23.8242 114.288C22.7821 113.767 21.5663 113.072 20.4662 112.059C19.3662 111.074 18.2951 109.859 17.4267 108.527C16.6162 107.137 16.0083 105.661 15.603 104.214C15.1977 102.766 15.1109 101.377 15.1109 100.19C15.1109 99.0031 15.2846 98.0188 15.4293 97.353C15.574 96.6872 15.6898 96.3109 15.6898 96.3109C15.6898 96.3109 15.6609 96.6872 15.6609 97.382C15.6319 98.0478 15.6609 99.032 15.7767 100.161C15.8925 101.29 16.1819 102.593 16.5872 103.953C16.9925 105.314 17.6293 106.674 18.4109 107.919C19.1636 109.193 20.1189 110.38 21.132 111.335C22.1452 112.29 23.1584 113.13 24.1137 113.738C25.069 114.345 25.9085 114.809 26.5164 115.069C27.1243 115.359 27.4717 115.503 27.4717 115.503C27.4717 115.503 27.0953 115.446 26.4295 115.301L26.4874 115.243ZM8.74231 143.12C9.03179 143.38 9.46601 143.757 9.92918 144.191C10.3923 144.654 11.0003 145.117 11.6082 145.696C12.2161 146.246 12.8819 146.796 13.5477 147.346C14.1845 147.925 14.8793 148.475 15.5161 148.938C16.1819 149.402 16.7609 149.923 17.282 150.299C17.803 150.675 18.2372 151.052 18.5557 151.254C18.8741 151.486 19.0478 151.631 19.0478 151.631C19.0478 151.631 18.8452 151.573 18.4399 151.457C18.0636 151.341 17.5136 151.196 16.9056 150.907C16.2977 150.617 15.574 150.299 14.8793 149.836C14.1845 149.373 13.4319 148.851 12.7082 148.301C12.0424 147.694 11.3766 147.086 10.7976 146.449C10.2187 145.841 9.75549 145.175 9.37917 144.625C8.97389 144.075 8.74231 143.554 8.53967 143.236C8.36599 142.888 8.27914 142.686 8.27914 142.686C8.27914 142.686 8.45283 142.83 8.74231 143.091V143.12ZM21.5373 154.583C20.8136 154.583 19.7425 154.583 18.4978 154.323C17.253 154.062 15.8056 153.686 14.3582 152.962C12.9108 152.238 11.4634 151.283 10.1897 150.096C8.94495 148.88 7.90282 147.491 7.09227 146.072C6.28173 144.654 5.78961 143.207 5.44224 141.991C5.09486 140.746 5.03697 139.675 4.97907 138.922C4.97907 138.17 4.97907 137.764 4.97907 137.764C4.97907 137.764 5.06591 138.17 5.2396 138.893C5.38434 139.617 5.70277 140.601 6.13699 141.759C6.57121 142.917 7.23701 144.191 8.04756 145.494C8.8581 146.796 9.90023 148.041 11.0871 149.141C12.245 150.27 13.5477 151.225 14.8793 151.949C16.2109 152.673 17.5136 153.252 18.7004 153.628C19.8583 153.975 20.8715 154.236 21.5952 154.323C22.3189 154.467 22.7242 154.496 22.7242 154.496C22.7242 154.496 22.3189 154.554 21.5663 154.554L21.5373 154.583ZM9.55285 189.089C9.92918 189.292 10.4792 189.552 11.0871 189.871C11.695 190.218 12.4766 190.537 13.2582 190.971C14.0398 191.376 14.8793 191.781 15.7477 192.129C16.5872 192.534 17.4557 192.91 18.2662 193.258C19.0767 193.576 19.8294 193.952 20.4952 194.184C21.161 194.445 21.711 194.705 22.1163 194.85C22.5216 195.024 22.7242 195.11 22.7242 195.11C22.7242 195.11 22.4926 195.11 22.0584 195.11C21.6242 195.081 21.0163 195.11 20.2926 194.966C19.5689 194.85 18.7294 194.705 17.8609 194.445C16.9925 194.155 16.0662 193.837 15.1688 193.46C14.3003 193.026 13.4319 192.534 12.6503 192.071C11.8687 191.579 11.2029 191.029 10.6529 190.566C10.0739 190.102 9.66865 189.639 9.37917 189.35C9.08969 189.031 8.94495 188.829 8.94495 188.829C8.94495 188.829 9.17653 188.944 9.55285 189.118V189.089ZM26.169 197.484C25.3874 197.687 24.2874 198.005 22.8979 198.092C21.5084 198.179 19.8873 198.179 18.1794 197.831C16.4714 197.484 14.6766 196.876 12.9977 196.008C11.3476 195.081 9.87128 193.924 8.62652 192.679C7.38175 191.434 6.45542 190.044 5.76067 188.858C5.06592 187.642 4.68959 186.542 4.42906 185.76C4.19748 184.979 4.08168 184.544 4.08168 184.544C4.08168 184.544 4.28432 184.95 4.66064 185.673C5.00802 186.397 5.64488 187.352 6.39752 188.423C7.17912 189.523 8.25019 190.681 9.43706 191.81C10.6529 192.939 12.0713 193.981 13.6345 194.792C15.1688 195.631 16.8188 196.268 18.4109 196.645C20.0031 197.021 21.5373 197.281 22.8689 197.31C24.2005 197.339 25.3295 197.31 26.1111 197.224C26.8927 197.166 27.3559 197.079 27.3559 197.079C27.3559 197.079 26.9216 197.253 26.169 197.484ZM23.2742 237.577C23.7084 237.693 24.3742 237.78 25.1269 237.953C25.8795 238.156 26.7769 238.272 27.7032 238.474C28.6296 238.677 29.6428 238.851 30.6559 238.996C31.6402 239.198 32.6533 239.343 33.6086 239.459C34.5639 239.546 35.4324 239.719 36.214 239.777C36.9955 239.835 37.6324 239.98 38.0956 240.009C38.5587 240.067 38.8193 240.125 38.8193 240.125C38.8193 240.125 38.5587 240.182 38.1245 240.327C37.6614 240.414 37.0245 240.588 36.2429 240.675C35.4613 240.732 34.535 240.848 33.5507 240.819C32.5665 240.761 31.4954 240.675 30.4533 240.559C29.4112 240.356 28.398 240.096 27.4427 239.806C26.4874 239.517 25.6479 239.14 24.9242 238.793C24.2005 238.474 23.6505 238.098 23.2453 237.867C22.8689 237.606 22.6373 237.461 22.6373 237.461C22.6373 237.461 22.8979 237.519 23.361 237.606L23.2742 237.577ZM43.0457 241.659C42.293 242.093 41.193 242.73 39.7746 243.222C38.3561 243.685 36.6192 244.177 34.7376 244.293C32.856 244.409 30.8007 244.293 28.8033 243.859C26.8348 243.367 24.9242 242.556 23.2742 241.601C21.6242 240.646 20.2926 239.459 19.1925 238.388C18.1215 237.317 17.3978 236.274 16.9346 235.522C16.4714 234.769 16.2398 234.335 16.2398 234.335C16.2398 234.335 16.5583 234.711 17.1662 235.348C17.7451 235.985 18.6425 236.824 19.7715 237.751C20.9005 238.677 22.3189 239.574 23.9111 240.443C25.5032 241.282 27.298 241.948 29.1506 242.353C30.9744 242.817 32.8849 242.99 34.6797 242.961C36.4745 242.903 38.1535 242.73 39.543 242.382C40.9614 242.035 42.1193 241.688 42.9299 241.369C43.7404 241.08 44.2036 240.877 44.2036 240.877C44.2036 240.877 43.7983 241.167 43.0746 241.63L43.0457 241.659ZM53.1485 283.633C53.6406 283.633 54.3643 283.546 55.2038 283.518C56.0433 283.518 57.0276 283.373 58.0407 283.344C59.0829 283.286 60.1829 283.199 61.2829 283.054C62.3829 282.968 63.483 282.852 64.5251 282.678C65.5383 282.504 66.5225 282.446 67.362 282.273C68.2015 282.128 68.8962 282.07 69.3883 281.983C69.8805 281.925 70.1699 281.896 70.1699 281.896C70.1699 281.896 69.9094 282.041 69.4752 282.302C69.041 282.533 68.4041 282.91 67.5936 283.199C66.783 283.489 65.8277 283.865 64.7856 284.097C63.7435 284.328 62.5856 284.531 61.4566 284.704C60.2987 284.791 59.1408 284.791 58.0697 284.791C56.9986 284.791 55.9854 284.589 55.1459 284.473C54.3064 284.357 53.6117 284.097 53.1196 283.981C52.6275 283.807 52.3669 283.72 52.3669 283.72C52.3669 283.72 52.6564 283.72 53.1485 283.662V283.633Z" fill="#B29E79"/>
<path d="M255.176 25.7068C255.408 25.591 255.524 25.5331 255.524 25.5331C255.524 25.5331 255.437 25.6199 255.292 25.7936C255.784 25.8804 256.247 25.9673 256.711 26.0541C257.116 25.591 257.463 25.1567 257.666 24.8383C257.926 24.462 258.071 24.2304 258.071 24.2304C258.071 24.2304 257.984 24.4909 257.811 24.8962C257.666 25.2146 257.434 25.6489 257.145 26.112C257.666 26.1989 258.158 26.2857 258.679 26.3726C259.49 24.7515 259.837 23.3041 259.895 22.8699C261.487 23.8251 263.108 24.8383 264.729 25.9094C265.858 26.6331 267.016 27.4147 268.145 28.1963C271.532 28.891 274.803 29.6147 277.958 30.3384C274.022 27.6463 270.229 25.1857 266.466 23.1014C264.671 22.0593 262.906 21.104 261.14 20.2066C261.921 19.3093 270.837 8.42481 253.758 0.232529C253.758 0.232529 256.132 3.32996 255.292 8.07743C254.568 12.1591 253.99 15.8355 258.505 18.875C252.658 15.9513 247.216 13.6644 242.41 11.9275C238.994 10.5959 235.839 9.69852 233.118 8.83008C230.368 8.10638 228.052 7.41163 226.142 6.97741C222.32 6.10897 220.294 5.6458 220.294 5.6458C220.294 5.6458 222.291 6.25371 226.026 7.38268C227.878 7.99059 230.136 8.80113 232.829 9.72747C235.434 10.7985 238.502 11.8986 241.802 13.4039C246.839 15.6039 252.571 18.4698 258.708 22.1172C253.237 19.7145 250.516 21.7409 247.91 24.5778C250.342 24.9541 252.716 25.3304 255.061 25.7357C255.061 25.7357 255.118 25.7068 255.147 25.6778L255.176 25.7068ZM257.232 3.70629C256.884 3.41681 256.682 3.24312 256.682 3.24312C256.682 3.24312 256.913 3.35891 257.319 3.56155C257.724 3.79313 258.303 4.14051 258.882 4.66157C259.461 5.18263 260.155 5.87739 260.705 6.71688C261.255 7.55637 261.748 8.5406 262.066 9.58273C262.355 10.6249 262.5 11.7249 262.5 12.7381C262.5 13.7512 262.327 14.7065 262.124 15.4881C261.921 16.2697 261.632 16.8776 261.429 17.3118C261.227 17.7171 261.082 17.9487 261.082 17.9487C261.082 17.9487 261.169 17.6882 261.284 17.2539C261.429 16.8197 261.574 16.1829 261.69 15.4013C261.805 14.6197 261.834 13.7223 261.805 12.767C261.777 11.8117 261.603 10.7985 261.284 9.84326C260.995 8.85903 260.59 7.93269 260.098 7.12215C259.605 6.31161 259.084 5.58791 258.534 5.00895C258.013 4.45893 257.55 3.99577 257.174 3.70629H257.232ZM258.592 6.89057C258.534 6.65898 258.505 6.51424 258.505 6.51424C258.505 6.51424 258.592 6.63003 258.737 6.83267C258.882 7.03531 259.084 7.32478 259.287 7.70111C259.49 8.07743 259.721 8.51165 259.895 9.00377C260.069 9.49588 260.242 10.0459 260.387 10.5959C260.503 11.1459 260.59 11.7249 260.648 12.2459C260.705 12.767 260.677 13.2881 260.648 13.6933C260.648 14.1276 260.561 14.4749 260.532 14.7065C260.474 14.9381 260.445 15.0828 260.445 15.0828C260.445 15.0828 260.416 14.9381 260.358 14.7065C260.329 14.4749 260.242 14.1276 260.184 13.7223C260.126 13.317 260.011 12.8539 259.924 12.3328C259.837 11.8407 259.721 11.2907 259.576 10.7696C259.461 10.2485 259.345 9.69852 259.2 9.2064C259.055 8.71429 258.969 8.25112 258.824 7.84585C258.708 7.44058 258.621 7.0932 258.563 6.86162L258.592 6.89057Z" fill="#B29E79"/>
<path d="M293.677 281.723C304.272 262.907 312.175 241.659 318.051 219.919C320.309 211.582 322.249 203.158 323.957 194.792C324.13 193.866 324.304 192.939 324.507 192.042C324.565 191.695 324.651 191.376 324.709 191.029C324.854 190.276 324.999 189.523 325.144 188.771C325.201 188.452 325.259 188.134 325.317 187.787C325.983 184.255 326.591 180.752 327.141 177.249C328.27 170.302 329.225 163.441 330.036 156.754C330.123 155.944 330.238 155.104 330.325 154.294C330.354 154.033 330.383 153.744 330.412 153.483C330.499 152.817 330.557 152.152 330.644 151.486C330.644 151.341 330.673 151.196 330.702 151.023C331.049 147.838 331.367 144.683 331.686 141.586C332.149 136.693 332.554 131.917 332.873 127.256C333.567 117.443 334.002 108.266 334.233 99.9583C334.465 92.3161 334.523 85.4265 334.494 79.4921C334.494 78.0737 334.494 76.7421 334.465 75.4394C334.465 74.3973 334.465 73.413 334.436 72.4578C334.378 68.4919 334.291 65.1629 334.175 62.5865C334.175 62.4996 334.175 62.4128 334.175 62.326C334.117 60.647 334.06 59.2864 334.002 58.3022C333.973 57.4337 333.915 56.8258 333.915 56.5364L333.481 49.3283L326.967 46.2309C326.33 45.9414 321.612 43.7124 313.217 40.7018C312.638 40.4992 312.03 40.2676 311.422 40.065C311.133 39.9781 310.843 39.8623 310.554 39.7755C309.28 39.3413 307.92 38.8781 306.501 38.386C301.377 36.678 295.356 34.8543 288.466 33.0306C287.916 32.8859 287.366 32.7411 286.816 32.5964C286.73 32.5964 286.643 32.5674 286.585 32.5385C284.616 32.0174 282.59 31.5253 280.506 31.0042C279.695 30.8016 278.856 30.599 278.045 30.4253C274.919 29.7016 271.648 28.9779 268.232 28.2831C265.163 27.6463 262.008 27.0384 258.737 26.4594C258.245 26.3726 257.724 26.2857 257.203 26.1989C257.058 26.1989 256.913 26.141 256.768 26.112C256.305 26.0252 255.813 25.9383 255.35 25.8515C255.263 25.8515 255.205 25.8515 255.118 25.8225C252.774 25.4173 250.4 25.041 247.968 24.6646C229.528 21.8567 208.252 19.9461 184.543 19.9461C160.835 19.9461 139.558 21.8567 121.118 24.6646C118.687 25.041 116.313 25.4173 113.968 25.8225C113.881 25.8225 113.823 25.8225 113.736 25.8515C113.244 25.9383 112.781 26.0252 112.318 26.112C112.173 26.112 112.029 26.1699 111.884 26.1989C111.363 26.2857 110.871 26.3726 110.35 26.4594C107.078 27.0384 103.923 27.6752 100.855 28.2831C97.4677 28.9779 94.1966 29.7016 91.0412 30.4253C90.2017 30.6279 89.3912 30.8305 88.5806 31.0042C86.4964 31.5253 84.4411 32.0174 82.5016 32.5385C82.4147 32.5385 82.3279 32.5674 82.27 32.5964C81.72 32.7411 81.17 32.8859 80.6199 33.0306C73.7303 34.8543 67.7091 36.707 62.5854 38.386C61.1669 38.8491 59.8063 39.3123 58.5326 39.7755C58.2432 39.8623 57.9537 39.9781 57.6642 40.065C57.0563 40.2676 56.4484 40.4992 55.8694 40.7018C47.5035 43.7124 42.756 45.9414 42.1191 46.2309L35.6058 49.3283L35.1716 56.5364C35.1716 56.8548 35.1137 57.4627 35.0848 58.3022C35.0269 59.2864 34.969 60.647 34.9111 62.326C34.9111 62.4128 34.9111 62.4996 34.9111 62.5865C34.8242 65.1629 34.7374 68.4919 34.6505 72.4578C34.6505 73.413 34.6505 74.3973 34.6216 75.4394C34.6216 76.7421 34.6216 78.0737 34.5927 79.4921C34.5927 85.4265 34.6216 92.3161 34.8532 99.9583C35.0848 108.266 35.519 117.443 36.2137 127.256C36.5322 131.888 36.9374 136.693 37.4006 141.586C37.6901 144.683 38.0085 147.838 38.3848 151.023C38.3848 151.167 38.4138 151.312 38.4427 151.486C38.5296 152.152 38.5875 152.817 38.6743 153.483C38.7033 153.744 38.7322 154.033 38.7612 154.294C38.848 155.104 38.9638 155.944 39.0506 156.754C39.8612 163.47 40.8165 170.331 41.9454 177.249C42.5244 180.752 43.1323 184.255 43.7692 187.787C43.8271 188.105 43.885 188.423 43.9429 188.771C44.0876 189.523 44.2323 190.276 44.3771 191.029C44.435 191.376 44.5218 191.695 44.5797 192.042C44.7534 192.968 44.9271 193.895 45.1297 194.792C46.8087 203.158 48.7772 211.582 51.0351 219.919C56.9115 241.659 64.7854 262.907 75.4093 281.723C75.4383 281.781 75.4672 281.839 75.4962 281.896C75.9883 282.765 76.4804 283.662 77.0015 284.531C82.9068 294.605 89.5938 303.926 97.2071 312.205C97.6124 312.639 97.9887 313.073 98.3651 313.479C100.334 315.563 102.36 317.531 104.386 319.442C104.878 319.905 105.37 320.339 105.863 320.803C106.557 321.41 107.223 322.047 107.918 322.655C108.41 323.06 108.902 323.466 109.365 323.871C110.407 324.739 111.421 325.608 112.463 326.418C117.268 330.182 122.305 333.511 127.516 336.406C129.86 337.708 132.234 338.895 134.666 339.995C135.013 340.169 135.39 340.342 135.737 340.487C138.053 341.529 140.369 342.514 142.742 343.382C155.682 348.158 169.635 350.561 184.543 350.561C199.451 350.561 213.433 348.158 226.344 343.382C228.892 342.427 231.41 341.356 233.9 340.227C234.507 339.937 235.115 339.677 235.723 339.387C237.692 338.432 239.66 337.448 241.571 336.377C246.781 333.482 251.789 330.153 256.624 326.39C257.666 325.579 258.708 324.711 259.721 323.842C260.213 323.437 260.705 323.032 261.169 322.626C261.863 322.018 262.558 321.41 263.224 320.774C263.716 320.339 264.208 319.876 264.7 319.413C266.756 317.502 268.753 315.534 270.721 313.45C271.127 313.016 271.503 312.581 271.879 312.176C279.493 303.897 286.209 294.576 292.085 284.502C292.606 283.633 293.098 282.736 293.59 281.867C293.619 281.81 293.648 281.752 293.677 281.694V281.723ZM52.0193 49.2125C53.872 48.373 56.5931 47.1862 60.1248 45.7967C67.1881 43.0755 77.4357 39.457 90.028 36.157C93.1834 35.3464 96.4545 34.478 99.8704 33.7253C103.286 32.9438 106.818 32.1043 110.494 31.4385C114.142 30.7148 117.905 29.9621 121.784 29.3542C125.634 28.7173 129.6 28.0805 133.653 27.6173C141.729 26.5462 150.095 25.7646 158.635 25.1857C162.89 24.9831 167.232 24.6357 171.546 24.5199C175.859 24.433 180.172 24.3462 184.514 24.2594C188.856 24.3462 193.199 24.433 197.541 24.5488C201.854 24.6646 206.167 25.012 210.423 25.2146C218.933 25.7936 227.328 26.5752 235.376 27.6463C239.429 28.1094 243.366 28.7463 247.245 29.3832C251.124 29.9621 254.887 30.7148 258.534 31.4674C262.211 32.1332 265.742 32.9727 269.158 33.7543C272.574 34.5069 275.874 35.3754 279 36.1859C291.593 39.457 301.84 43.0755 308.904 45.7967C312.435 47.1572 315.157 48.373 317.009 49.2125C318.833 50.081 319.817 50.5441 319.817 50.5441C319.817 50.5441 318.833 50.1389 316.951 49.3283C315.07 48.5757 312.291 47.5335 308.73 46.2598C305.169 45.0151 300.798 43.5677 295.732 42.0913C290.667 40.615 284.935 39.0518 278.653 37.5465C275.498 36.7938 272.227 35.9833 268.782 35.3175C265.366 34.5938 261.834 33.8411 258.158 33.2622C254.511 32.5964 250.747 31.9306 246.897 31.4095C243.047 30.8595 239.11 30.2226 235.086 29.7884C227.068 28.7752 218.731 28.0515 210.249 27.5305C205.994 27.3568 201.738 27.0384 197.425 26.9515C193.141 26.8936 188.828 26.8357 184.514 26.7489C180.201 26.8068 175.859 26.8647 171.546 26.9515C167.232 27.0384 162.977 27.3568 158.751 27.5305C150.269 28.0515 141.932 28.7752 133.913 29.7884C129.889 30.1937 125.952 30.8595 122.102 31.4095C118.252 31.9306 114.489 32.5964 110.842 33.2622C107.165 33.8701 103.663 34.6227 100.218 35.3175C96.8019 35.9833 93.5018 36.7938 90.3465 37.5465C84.0358 39.0518 78.3041 40.615 73.2672 42.0913C68.2013 43.5677 63.8591 45.0151 60.2695 46.2598C56.7089 47.5335 53.9299 48.5757 52.0483 49.3283C50.1667 50.1099 49.1824 50.5152 49.1824 50.5152C49.1824 50.5152 50.1667 50.052 51.9904 49.1836L52.0193 49.2125ZM214.823 327.316C212.362 327.982 209.931 328.763 207.412 329.197L203.649 329.979L199.857 330.529C197.309 330.992 194.82 331.05 192.301 331.311C189.812 331.513 186.917 331.484 184.514 331.571C174.209 331.571 163.961 330.182 154.206 327.287C144.45 324.363 135.274 319.76 127.053 313.942C110.61 302.16 98.1045 285.804 88.8701 268.609C79.6357 251.327 73.0356 233.322 68.1144 215.924C63.1933 198.468 59.8642 181.592 57.4616 165.902C52.743 134.493 51.0351 107.977 50.514 89.4213C50.2535 80.129 50.1377 72.8341 50.1667 67.855C50.1667 62.876 50.2535 60.2128 50.2535 60.2128C50.2535 60.2128 50.0219 62.847 49.7614 67.8261C49.5009 72.8051 49.1245 80.1 49.0666 89.4213C48.9798 98.7425 49.0666 110.032 49.6456 123.001C50.2246 135.97 51.2377 150.588 53.322 166.481C54.972 179.305 57.23 192.968 60.4432 207.153C42.8718 133.885 47.3877 57.2022 47.3877 57.2022C47.3877 57.2022 100.391 32.0464 184.572 32.0464C268.753 32.0464 321.757 57.2022 321.757 57.2022C321.757 57.2022 326.244 133.335 308.904 206.342C312.001 192.447 314.23 179.044 315.851 166.452C317.936 150.588 318.949 135.941 319.528 122.972C320.107 110.003 320.165 98.6846 320.107 89.3923C320.049 80.0711 319.672 72.7762 319.383 67.7971C319.093 62.8181 318.891 60.1838 318.891 60.1838C318.891 60.1838 318.978 62.847 318.978 67.8261C319.007 72.8051 318.891 80.1 318.63 89.3923C318.109 107.948 316.372 134.464 311.654 165.873C309.251 181.563 305.893 198.439 301.001 215.895C296.08 233.322 289.48 251.327 280.245 268.58C271.011 285.775 258.505 302.131 242.063 313.942C233.842 319.76 224.665 324.363 214.91 327.287L214.823 327.316Z" fill="#202837"/>
<path d="M309.396 68.7234C309.396 68.7234 261.139 45.8256 184.514 45.8256C107.889 45.8256 59.6325 68.7234 59.6325 68.7234C59.6325 68.7234 44.4928 324.624 184.514 324.624C324.536 324.624 309.396 68.7234 309.396 68.7234ZM79.1724 205.561C78.4198 202.492 77.6961 199.395 77.0303 196.326C76.9434 195.979 76.8855 195.602 76.7987 195.255C76.3934 193.431 76.0171 191.579 75.6697 189.755C75.2066 187.381 74.7434 185.036 74.3381 182.663C73.875 180.115 73.4407 177.597 73.0355 175.078C73.0355 175.02 73.0355 174.963 73.0065 174.905C72.6012 172.415 72.2249 169.955 71.8775 167.494C71.8775 167.407 71.8775 167.32 71.8486 167.204C71.5012 164.773 71.1828 162.341 70.8644 159.939C70.8644 159.852 70.8644 159.765 70.8354 159.678C70.517 157.246 70.2275 154.815 69.967 152.412C69.7933 150.733 69.5907 149.083 69.4459 147.404C69.4459 147.144 69.388 146.883 69.3591 146.622C69.1854 144.943 69.0406 143.265 68.867 141.643C66.0011 109.974 66.4064 83.7764 66.7537 73.6446C69.5038 72.5446 73.6723 70.9524 79.0856 69.1577L82.4436 105.574L86.0042 66.9866C106.991 60.7049 141.179 53.1494 184.485 53.1494C213.115 53.1494 237.75 56.4495 257.232 60.5022L260.705 70.3445L263.687 61.8917C270.721 63.5128 276.974 65.1918 282.358 66.7839L285.948 115.822L289.364 68.955C295.038 70.8077 299.38 72.4577 302.217 73.6157C302.564 84.3264 303.027 113.014 299.582 147.115C299.553 147.433 299.525 147.751 299.496 148.07C299.293 149.98 299.09 151.891 298.859 153.802C298.627 155.857 298.367 157.941 298.106 160.025C298.106 160.025 298.106 160.025 298.106 160.054C296.948 169.202 295.472 178.581 293.648 188.047C293.648 188.047 293.648 188.076 293.648 188.105C293.156 190.623 292.635 193.113 292.114 195.631C292.085 195.805 292.056 195.95 291.998 196.124C290.551 202.782 288.93 209.411 287.077 215.953C286.932 216.445 286.787 216.937 286.643 217.429C286.035 219.513 285.427 221.569 284.79 223.624H84.2094C83.5725 221.598 82.9646 219.571 82.3857 217.516C82.2409 216.966 82.0672 216.416 81.9225 215.866C80.9672 212.45 80.0409 208.976 79.2014 205.532L79.1724 205.561ZM131.713 281.346L129.021 298.165C125.721 295.502 122.537 292.549 119.497 289.336C105.023 273.994 94.457 253.614 86.7568 231.411H282.272C274.571 253.585 264.005 273.965 249.531 289.307C241.686 297.615 232.944 304.1 223.42 308.702L220.844 301.581L217.283 311.365C207.499 315.158 196.904 317.126 185.556 317.242L182.517 303.752L179.477 317.126C162.977 316.316 148.155 311.452 135.129 302.623L131.713 281.317V281.346Z" fill="#202837"/>
<path d="M84.0649 53.5258C86.3518 52.86 88.7835 52.1652 91.3598 51.5284C93.9362 50.8336 96.6573 50.1389 99.4942 49.473C102.331 48.7783 105.313 48.1125 108.41 47.5046C111.479 46.8388 114.692 46.2309 117.992 45.6809C119.642 45.3914 121.321 45.1019 123 44.7835C124.708 44.5229 126.416 44.2914 128.153 44.0308C131.626 43.5098 135.187 42.9598 138.806 42.5834C142.424 42.1492 146.129 41.686 149.864 41.3966C153.598 41.1071 157.39 40.6729 161.211 40.5571C165.032 40.3834 168.883 40.0939 172.762 40.036C176.641 39.9781 180.549 39.9202 184.457 39.8623C188.365 39.9202 192.244 39.9781 196.123 40.036C200.002 40.0939 203.852 40.3834 207.702 40.5571C211.523 40.7018 215.315 41.1071 219.078 41.4255C222.842 41.686 226.518 42.1492 230.136 42.6124C233.784 42.9887 237.316 43.5387 240.789 44.0598C242.526 44.3203 244.263 44.5519 245.942 44.8124C247.621 45.1019 249.3 45.4203 250.95 45.7098C254.25 46.2598 257.463 46.8677 260.532 47.5335C263.629 48.1414 266.611 48.8072 269.448 49.502C272.314 50.1389 275.006 50.8626 277.582 51.5573C280.159 52.1942 282.619 52.8889 284.877 53.5547C289.451 54.8574 293.388 56.16 296.63 57.2601C303.085 59.4891 306.675 61.0522 306.675 61.0522C306.675 61.0522 303.172 59.2864 296.804 56.7969C293.619 55.5521 289.711 54.1337 285.167 52.6573C282.909 51.9047 280.477 51.1231 277.901 50.3704C275.353 49.5888 272.632 48.8362 269.766 48.1125C266.929 47.3309 263.948 46.6072 260.85 45.9124C257.782 45.1598 254.569 44.494 251.269 43.8571C249.618 43.5387 247.939 43.1913 246.261 42.844C244.553 42.5545 242.845 42.265 241.079 41.9755C237.605 41.3387 234.016 40.8176 230.368 40.4123C226.721 39.9492 223.015 39.457 219.252 39.1386C215.489 38.8202 211.668 38.357 207.818 38.1833C203.968 37.9807 200.088 37.6623 196.18 37.5754C192.273 37.4886 188.365 37.4017 184.428 37.3149C180.52 37.4017 176.612 37.4886 172.704 37.5754C168.825 37.6623 164.917 37.9807 161.067 38.1833C157.188 38.357 153.395 38.7912 149.632 39.1386C145.869 39.4281 142.164 39.9202 138.516 40.4123C134.869 40.8465 131.279 41.3676 127.805 41.9755C126.068 42.265 124.332 42.5545 122.624 42.844C120.916 43.1913 119.266 43.5098 117.616 43.8571C114.316 44.494 111.102 45.1598 108.034 45.9124C104.936 46.6072 101.955 47.3309 99.1468 48.1125C96.3099 48.8362 93.5888 49.5888 91.0125 50.3704C88.4361 51.1231 86.0334 51.9047 83.7465 52.6573C79.2017 54.1337 75.2937 55.5811 72.1094 56.7969C65.7119 59.2864 62.2382 61.0522 62.2382 61.0522C62.2382 61.0522 65.8277 59.4891 72.2831 57.2601C75.5253 56.16 79.4622 54.8574 84.036 53.5547L84.0649 53.5258Z" fill="#202837"/>
<path d="M239.226 102.245C239.226 98.2794 239.197 94.3135 239.081 90.5792C238.994 86.8449 238.792 83.3711 238.676 80.4184C238.56 77.4368 238.328 74.9473 238.213 73.2104C238.068 71.4735 237.981 70.4893 237.981 70.4893C237.981 70.4893 237.865 71.4735 237.75 73.2104C237.663 74.9473 237.402 77.4368 237.286 80.4184C237.171 83.4001 236.968 86.8739 236.881 90.5792C236.765 94.3135 236.765 98.2794 236.736 102.245C236.736 106.211 236.794 110.177 236.881 113.911L239.052 114.49C239.052 114.288 239.052 114.114 239.052 113.911C239.168 110.177 239.168 106.211 239.197 102.245H239.226Z" fill="#202837"/>
<path d="M152.44 85.5422C152.353 81.808 152.151 78.3342 152.035 75.3815C151.919 72.3999 151.687 69.9103 151.572 68.1735C151.427 66.4366 151.34 65.4523 151.34 65.4523C151.34 65.4523 151.224 66.4366 151.109 68.1735C151.022 69.9103 150.761 72.3999 150.645 75.3815C150.53 78.3631 150.327 81.8369 150.24 85.5422C150.124 89.2765 150.124 93.2424 150.095 97.2083C150.095 100.798 150.153 104.358 150.211 107.774L152.469 107.166C152.527 103.953 152.556 100.566 152.585 97.2083C152.585 93.2424 152.556 89.2765 152.44 85.5422Z" fill="#202837"/>
<path d="M188.625 291.044L192.764 287.02L187.062 286.21L184.514 281.028L181.967 286.21L176.264 287.02L180.375 291.044L179.419 296.718L184.514 294.055L189.609 296.718L188.625 291.044Z" fill="#B29E79"/>
<path d="M203.157 290.291L202.52 293.997L205.849 292.26L209.178 293.997L208.541 290.291L211.233 287.686L207.528 287.136L205.849 283.778L204.199 287.136L200.494 287.686L203.157 290.291Z" fill="#B29E79"/>
<path d="M163.151 292.26L166.48 293.997L165.843 290.291L168.535 287.686L164.801 287.136L163.151 283.778L161.501 287.136L157.766 287.686L160.459 290.291L159.822 293.997L163.151 292.26Z" fill="#B29E79"/>
<path d="M77.4359 196.355C79.2307 196.471 81.286 196.587 83.515 196.674C84.615 196.674 85.7729 196.76 86.9598 196.76C88.1177 196.76 89.3046 196.76 90.4915 196.789C91.6783 196.789 92.8652 196.789 94.0231 196.76C95.181 196.76 96.339 196.703 97.4679 196.674C99.6969 196.616 101.781 196.5 103.547 196.355C107.108 196.124 109.481 195.776 109.481 195.776C109.481 195.776 107.108 195.429 103.547 195.197C101.752 195.081 99.6969 194.966 97.4679 194.879C96.3679 194.879 95.21 194.792 94.0231 194.792C92.8652 194.792 91.6783 194.792 90.4915 194.763C89.3046 194.763 88.1177 194.763 86.9598 194.792C85.8019 194.792 84.644 194.85 83.515 194.879C81.286 194.937 79.2018 195.052 77.4359 195.197C77.2043 195.197 77.0017 195.226 76.7991 195.255C76.8859 195.602 76.9438 195.95 77.0307 196.326C77.1754 196.326 77.2912 196.326 77.4359 196.355Z" fill="#202837"/>
<path d="M112.202 152.412L110.321 213.637H99.8417V215.953C99.089 215.924 98.3074 215.895 97.4969 215.866C96.3969 215.866 95.239 215.779 94.0521 215.779C92.8942 215.779 91.7073 215.779 90.5204 215.75C89.3336 215.75 88.1467 215.75 86.9888 215.779C85.8309 215.779 84.6729 215.837 83.544 215.866C82.994 215.866 82.4439 215.895 81.9229 215.924C82.0676 216.474 82.2413 217.024 82.3861 217.574C82.7624 217.574 83.1387 217.603 83.544 217.603C84.644 217.603 85.8019 217.69 86.9888 217.69C88.1467 217.69 89.3336 217.69 90.5204 217.719C91.4757 217.719 92.431 217.719 93.3863 217.719V221.627H83.5729C83.7756 222.322 84.0071 223.016 84.2098 223.682H284.819C285.022 222.987 285.254 222.293 285.456 221.627H275.527V217.719C276.28 217.719 277.032 217.719 277.785 217.719C278.943 217.719 282.446 217.661 283.546 217.632C284.617 217.603 285.659 217.545 286.672 217.516C286.817 217.024 286.961 216.532 287.106 216.04C285.977 215.982 284.819 215.924 283.575 215.895C282.475 215.895 281.317 215.808 280.13 215.808C278.972 215.808 277.785 215.808 276.598 215.779C275.411 215.779 274.224 215.779 273.066 215.808C271.909 215.808 270.751 215.866 269.622 215.895C267.393 215.953 265.308 216.069 263.543 216.213V213.695L262.964 196.384C263.166 196.384 263.34 196.384 263.543 196.413C265.337 196.529 267.393 196.645 269.622 196.731C270.722 196.731 271.88 196.818 273.066 196.818C274.224 196.818 275.411 196.818 276.598 196.847C277.785 196.847 278.972 196.847 280.13 196.818C281.288 196.818 282.446 196.76 283.575 196.731C285.804 196.674 287.888 196.558 289.654 196.413C290.522 196.355 291.304 196.297 292.027 196.239C292.056 196.066 292.085 195.921 292.143 195.747C292.143 195.66 292.172 195.574 292.201 195.487C291.448 195.429 290.609 195.342 289.654 195.284C287.859 195.168 285.804 195.053 283.575 194.966C282.475 194.966 281.317 194.879 280.13 194.879C278.972 194.879 277.785 194.879 276.598 194.85C275.411 194.85 274.224 194.85 273.066 194.879C271.909 194.879 270.751 194.937 269.622 194.966C267.393 195.024 265.308 195.139 263.543 195.284C263.34 195.284 263.137 195.284 262.935 195.313L262.761 189.813H275.874V155.973H262.587V185.268L261.487 152.499H297.296V166.539C297.585 164.426 297.875 162.312 298.135 160.199C298.135 160.199 298.135 160.199 298.135 160.17C298.396 158.086 298.656 156.002 298.888 153.946C299.12 152.007 299.322 150.096 299.525 148.215C299.554 147.896 299.583 147.578 299.612 147.259C299.785 145.407 299.988 143.583 300.133 141.759H262.414V125.954H264.932V121.438L239.024 114.635L236.853 114.056L181.649 99.5241L152.44 107.311L150.182 107.919L99.3206 121.467V125.983H101.839V141.788H68.8094C68.9542 143.438 69.1279 145.117 69.3016 146.796C69.3016 147.057 69.3595 147.317 69.3884 147.578C69.5621 149.228 69.7358 150.907 69.9095 152.586H112.145L112.202 152.412ZM269.708 157.883H273.906V172.734L269.506 172.56L269.737 157.883H269.708ZM269.477 173.023L273.906 172.849V187.787H269.245L269.477 173.023ZM264.556 157.883H268.753L268.985 172.531L264.585 172.357V157.883H264.556ZM264.556 173.255L268.985 173.081L269.216 187.816H264.556V173.255ZM269.593 149.546C269.737 149.546 269.882 149.546 270.056 149.546C271.156 149.546 272.314 149.633 273.501 149.633C274.659 149.633 275.845 149.633 277.032 149.662C278.219 149.662 279.406 149.662 280.564 149.633C281.722 149.633 282.88 149.575 284.009 149.546C286.238 149.488 288.322 149.373 290.088 149.228C293.648 148.996 296.022 148.649 296.022 148.649C296.022 148.649 293.648 148.302 290.088 148.07C288.293 147.954 286.238 147.838 284.009 147.751C282.909 147.751 281.751 147.665 280.564 147.665C279.406 147.665 278.219 147.665 277.032 147.636C275.845 147.636 274.659 147.636 273.501 147.665C272.343 147.665 271.185 147.723 270.056 147.751C269.911 147.751 269.766 147.751 269.593 147.751V146.854C269.737 146.854 269.882 146.854 270.056 146.854C271.156 146.854 272.314 146.941 273.501 146.941C274.659 146.941 275.845 146.941 277.032 146.97C278.219 146.97 279.406 146.97 280.564 146.941C281.722 146.941 282.88 146.883 284.009 146.854C286.238 146.796 288.322 146.68 290.088 146.536C293.648 146.304 296.022 145.957 296.022 145.957C296.022 145.957 293.648 145.609 290.088 145.378C288.293 145.262 286.238 145.146 284.009 145.059C282.909 145.059 281.751 144.972 280.564 144.972C279.406 144.972 278.219 144.972 277.032 144.944C275.845 144.944 274.659 144.944 273.501 144.972C272.343 144.972 271.185 145.03 270.056 145.059C269.911 145.059 269.766 145.059 269.593 145.059V143.583H297.325V150.299H269.593V149.402V149.546ZM113.245 150.125H120.424L122.334 213.811H111.276L113.245 150.125ZM104.039 125.983H259.345V142.309H104.039V125.983ZM236.331 165.439H240.095L238.676 211.234L236.331 165.439ZM238.589 213.579V213.637H235.492L238.589 213.579ZM252.195 147.086V147.201H239.545V145.03H252.195V145.175L240.268 146.13L252.195 147.086ZM241.513 150.125H248.692L250.603 213.811H239.545L241.513 150.125ZM250.487 162.197C250.429 159.475 250.429 157.189 250.4 155.596C250.4 154.004 250.4 153.107 250.4 153.107C250.4 153.107 250.458 154.004 250.603 155.596C250.69 157.189 250.892 159.446 251.037 162.168C251.182 164.889 251.384 168.073 251.558 171.489C251.703 174.905 251.877 178.523 252.021 182.171C252.137 185.818 252.253 189.437 252.369 192.852C252.484 196.268 252.513 199.453 252.571 202.174C252.629 204.895 252.629 207.182 252.658 208.774C252.658 210.366 252.658 211.292 252.658 211.292C252.658 211.292 252.6 210.395 252.455 208.803C252.369 207.211 252.166 204.953 252.021 202.232C251.877 199.51 251.674 196.326 251.5 192.91C251.355 189.494 251.182 185.876 251.037 182.229C250.921 178.581 250.805 174.963 250.69 171.547C250.574 168.131 250.545 164.947 250.487 162.225V162.197ZM220.671 206.226V200.321L226.46 200.06L226.142 206.487L220.7 206.226H220.671ZM226.084 207.297L225.852 211.784H220.671V207.558L226.084 207.297ZM220.671 199.018V193.113L226.258 192.852L226.46 199.279L220.671 199.018ZM226.026 185.644L226.229 192.071L220.671 191.81V185.905L226.026 185.644ZM220.671 184.573V179.855H225.852L226.026 184.805L220.7 184.544L220.671 184.573ZM218.065 177.249V212.161C217.139 212.132 216.184 212.074 215.199 212.045L213.607 167.436C214.62 167.407 215.634 167.349 216.589 167.32C221.365 167.147 225.36 166.915 228.139 166.77L227.618 177.278H218.065V177.249ZM216.589 165.612C215.605 165.583 214.563 165.526 213.52 165.497H228.197V166.191C225.389 166.018 221.394 165.815 216.589 165.612ZM195.949 209.469L193.836 167.899C194.965 167.899 196.123 167.899 197.252 167.87L195.978 209.498L195.949 209.469ZM209.439 147.144V147.259H196.789V145.088H209.439V145.233L197.512 146.188L209.439 147.144ZM198.757 150.183H205.936L207.876 213.869H196.817L198.786 150.183H198.757ZM207.673 162.283C207.615 159.562 207.615 157.275 207.586 155.683C207.586 154.091 207.586 153.165 207.586 153.165C207.586 153.165 207.644 154.062 207.789 155.654C207.876 157.246 208.078 159.504 208.223 162.225C208.368 164.947 208.57 168.131 208.744 171.547C208.889 174.963 209.062 178.581 209.207 182.229C209.323 185.876 209.439 189.494 209.555 192.91C209.67 196.326 209.699 199.51 209.757 202.232C209.815 204.953 209.815 207.24 209.844 208.832C209.844 210.424 209.844 211.35 209.844 211.35C209.844 211.35 209.786 210.453 209.641 208.861C209.555 207.269 209.352 205.011 209.207 202.29C209.062 199.568 208.86 196.384 208.686 192.968C208.541 189.552 208.368 185.934 208.194 182.286C208.078 178.639 207.962 175.02 207.847 171.605C207.731 168.189 207.702 165.004 207.644 162.283H207.673ZM185.007 177.307H174.846V211.466C174.151 211.466 173.427 211.466 172.733 211.466L171.17 167.928C171.517 167.928 171.864 167.928 172.212 167.928C175.338 167.928 178.522 167.957 181.678 167.986C182.951 167.986 184.225 167.986 185.47 167.986L185.007 177.307ZM184.167 192.158L184.37 185.615H184.572L184.225 192.158H184.138H184.167ZM184.225 192.852L183.993 197.166L184.138 192.852H184.225ZM184.399 184.95L184.572 179.913H184.891L184.63 184.95H184.399ZM177.451 206.284V200.379L183.328 200.118L183.53 206.4V206.574L177.451 206.284ZM183.501 207.326L183.299 211.466C182.778 211.466 182.257 211.466 181.707 211.466C180.288 211.466 178.87 211.466 177.451 211.466V207.587L183.501 207.297V207.326ZM182.865 185.702L183.067 192.129L177.451 191.868V185.963L182.865 185.702ZM177.451 184.631V179.913H182.691L182.865 184.863L177.48 184.602L177.451 184.631ZM183.096 192.91L183.299 199.337L177.451 199.076V193.171L183.096 192.91ZM166.712 147.173V147.288H154.061V145.117H166.712V145.262L154.785 146.217L166.712 147.173ZM154.467 167.639C154.467 167.639 154.495 167.639 154.524 167.639L153.28 207.703L151.224 167.523C152.266 167.552 153.367 167.581 154.467 167.61V167.639ZM156.03 150.212H163.209L165.119 213.898H154.061L156.03 150.212ZM165.033 161.241C164.975 158.375 164.975 155.973 164.946 154.294C164.946 152.615 164.946 151.659 164.946 151.659C164.946 151.659 165.004 152.615 165.148 154.294C165.264 155.973 165.438 158.346 165.583 161.212C165.727 164.078 165.959 167.436 166.104 171.026C166.248 174.615 166.422 178.436 166.596 182.257C166.712 186.079 166.856 189.929 166.972 193.518C167.088 197.108 167.146 200.466 167.204 203.332C167.262 206.197 167.262 208.6 167.291 210.279C167.291 211.958 167.291 212.913 167.291 212.913C167.291 212.913 167.233 211.958 167.088 210.279C166.972 208.6 166.798 206.226 166.654 203.361C166.509 200.495 166.277 197.137 166.133 193.547C165.988 189.958 165.814 186.137 165.64 182.315C165.525 178.494 165.38 174.644 165.264 171.055C165.148 167.465 165.09 164.107 165.033 161.241ZM142.916 167.233L142.395 177.336H131.598V213.753H130.005L128.298 165.554H143.032V165.844C135.621 166.162 130.903 166.539 130.903 166.539C130.903 166.539 135.592 166.915 142.945 167.233H142.916ZM139.558 185.702L139.761 192.129L134.203 191.868V185.963L139.558 185.702ZM134.203 184.631V179.913H139.385L139.558 184.863L134.232 184.602L134.203 184.631ZM139.79 192.91L139.993 199.337L134.203 199.076V193.171L139.79 192.91ZM140.021 200.118L140.224 206.574L134.203 206.284V200.379L140.021 200.118ZM140.253 207.326L140.311 209.034L140.369 207.297H140.861L140.629 211.813H134.203V207.587L140.253 207.297V207.326ZM140.398 206.574L140.6 200.089H141.237L140.89 206.603H140.369L140.398 206.574ZM140.629 199.366L140.832 192.852H141.614L141.266 199.395H140.629V199.366ZM140.861 192.158L141.064 185.615H141.961L141.614 192.187H140.832L140.861 192.158ZM141.093 184.95L141.266 179.913H142.279L142.019 184.979H141.122L141.093 184.95ZM123.579 203.361C123.434 200.495 123.203 197.137 123.058 193.547C122.884 189.958 122.74 186.137 122.566 182.315C122.45 178.494 122.305 174.644 122.19 171.055C122.074 167.465 122.016 164.107 121.958 161.241C121.9 158.375 121.9 155.973 121.871 154.294C121.871 152.615 121.871 151.659 121.871 151.659C121.871 151.659 121.929 152.615 122.074 154.294C122.19 155.973 122.363 158.346 122.508 161.212C122.653 164.078 122.884 167.436 123.029 171.026C123.174 174.615 123.347 178.436 123.521 182.257C123.637 186.079 123.782 189.929 123.897 193.518C124.013 197.108 124.071 200.466 124.129 203.332C124.187 206.197 124.187 208.6 124.216 210.279C124.216 211.958 124.216 212.913 124.216 212.913C124.216 212.913 124.158 211.958 124.013 210.279C123.897 208.6 123.724 206.226 123.579 203.361ZM111.276 145.146H123.926V145.291L112 146.246L123.926 147.201V147.317H111.276V145.146ZM268.493 218.066V221.945H94.8047V218.066H268.493ZM262.298 215.113V216.792H101.029V215.113H262.298ZM181.707 102.101L260.619 122.856H102.823L181.736 102.101H181.707ZM69.8226 143.815H100.942V145.407C99.9864 145.349 98.9732 145.32 97.9022 145.291C96.8022 145.291 95.6442 145.204 94.4574 145.204C93.2994 145.204 92.1126 145.204 90.9257 145.175C89.7388 145.175 88.552 145.175 87.3941 145.204C86.2361 145.204 85.0782 145.262 83.9492 145.291C81.7202 145.349 79.636 145.465 77.8702 145.609C74.3096 145.841 71.9358 146.188 71.9358 146.188C71.9358 146.188 74.3096 146.536 77.8702 146.767C79.6649 146.883 81.7202 146.999 83.9492 147.086C85.0493 147.086 86.2072 147.173 87.3941 147.173C88.552 147.173 89.7388 147.173 90.9257 147.201C92.1126 147.201 93.2994 147.201 94.4574 147.173C95.6153 147.173 96.7732 147.115 97.9022 147.086C100.131 147.028 102.215 146.912 103.981 146.767C105.747 146.651 107.223 146.507 108.266 146.391H110.292V147.78L110.495 148.041L112.26 150.386V150.559H69.7937V143.844L69.8226 143.815Z" fill="#202837"/>
<path d="M233.611 119.238L185.383 104.822L181.707 103.837L123.174 119.238H233.639H233.611ZM184.949 107.195C185.702 107.224 186.396 107.253 187.004 107.311C188.452 107.427 189.407 107.572 189.407 107.572C189.407 107.572 188.452 107.716 187.004 107.832C185.644 107.948 183.849 108.006 182.025 108.006L184.949 107.195ZM171.401 110.959C172.588 110.93 173.891 110.872 175.251 110.843C177.307 110.785 179.507 110.785 181.707 110.785C183.907 110.785 186.107 110.785 188.162 110.843C190.217 110.872 192.128 110.959 193.778 111.016C195.428 111.074 196.789 111.161 197.744 111.219C198.699 111.277 199.249 111.335 199.249 111.335C199.249 111.335 198.699 111.364 197.744 111.451C196.789 111.48 195.399 111.595 193.778 111.653C192.128 111.711 190.217 111.798 188.162 111.827C186.107 111.885 183.907 111.885 181.707 111.885C179.507 111.885 177.307 111.885 175.251 111.827C173.196 111.798 171.285 111.711 169.635 111.653C169.462 111.653 169.288 111.653 169.114 111.653L171.401 111.016V110.959ZM156.348 115.127C157.101 115.127 157.912 115.069 158.751 115.069C161.877 115.011 165.525 114.896 169.433 114.867C173.341 114.867 177.509 114.809 181.678 114.78C185.846 114.78 190.015 114.78 193.923 114.867C197.831 114.896 201.478 115.011 204.605 115.069C207.731 115.127 210.336 115.243 212.16 115.301C213.984 115.388 215.026 115.417 215.026 115.417C215.026 115.417 213.984 115.474 212.16 115.532C210.336 115.59 207.731 115.706 204.605 115.764C201.478 115.822 197.831 115.938 193.923 115.967C190.015 116.024 185.846 116.024 181.678 116.053C177.509 116.024 173.341 115.996 169.433 115.967C165.525 115.967 161.877 115.822 158.751 115.764C157.159 115.735 155.683 115.677 154.38 115.648L156.348 115.098V115.127Z" fill="#202837"/>
<path d="M246 210.684C246.029 208.976 246.145 206.545 246.174 203.621C246.203 200.697 246.29 197.281 246.319 193.634C246.319 189.987 246.348 186.079 246.377 182.171C246.377 178.263 246.348 174.384 246.319 170.707C246.319 167.06 246.203 163.644 246.174 160.72C246.145 157.796 246.029 155.365 246 153.657C245.942 151.949 245.913 150.965 245.913 150.965C245.913 150.965 245.884 151.949 245.827 153.657C245.798 155.365 245.682 157.796 245.653 160.72C245.624 163.644 245.508 167.06 245.508 170.707C245.508 174.355 245.479 178.263 245.45 182.171C245.45 186.079 245.508 189.958 245.508 193.634C245.508 197.281 245.624 200.697 245.653 203.621C245.711 206.545 245.798 208.976 245.827 210.684C245.884 212.392 245.913 213.377 245.913 213.377C245.913 213.377 245.942 212.392 246 210.684Z" fill="#202837"/>
<path d="M244.263 150.965C244.263 150.965 244.234 151.949 244.176 153.657C244.118 155.365 244.002 157.796 243.945 160.72C243.887 163.644 243.8 167.06 243.713 170.707C243.655 174.355 243.597 178.263 243.51 182.171C243.481 186.079 243.452 189.958 243.423 193.634C243.423 197.281 243.423 200.697 243.423 203.621C243.423 206.545 243.452 208.976 243.481 210.684C243.481 212.392 243.481 213.377 243.481 213.377C243.481 213.377 243.51 212.392 243.568 210.684C243.626 208.976 243.713 206.545 243.8 203.621C243.858 200.697 243.945 197.281 244.031 193.634C244.089 189.987 244.147 186.079 244.234 182.171C244.263 178.263 244.292 174.384 244.321 170.707C244.321 167.06 244.321 163.644 244.321 160.72C244.321 157.796 244.263 155.365 244.263 153.657C244.263 151.949 244.263 150.965 244.263 150.965Z" fill="#202837"/>
<path d="M247.476 182.171C247.534 186.079 247.621 189.958 247.737 193.634C247.824 197.281 247.997 200.697 248.084 203.621C248.171 206.545 248.345 208.976 248.432 210.684C248.547 212.392 248.605 213.377 248.605 213.377C248.605 213.377 248.634 212.392 248.692 210.684C248.692 208.976 248.808 206.545 248.808 203.621C248.808 200.697 248.866 197.281 248.866 193.634C248.866 189.987 248.808 186.079 248.779 182.171C248.721 178.263 248.634 174.384 248.518 170.707C248.432 167.06 248.258 163.644 248.171 160.72C248.084 157.796 247.91 155.365 247.824 153.657C247.708 151.949 247.65 150.965 247.65 150.965C247.65 150.965 247.621 151.949 247.563 153.657C247.563 155.365 247.447 157.796 247.447 160.72C247.447 163.644 247.389 167.06 247.389 170.707C247.389 174.355 247.447 178.263 247.476 182.171Z" fill="#202837"/>
<path d="M202.867 203.621C202.925 206.545 203.012 208.976 203.041 210.684C203.099 212.392 203.128 213.377 203.128 213.377C203.128 213.377 203.157 212.392 203.215 210.684C203.244 208.976 203.36 206.545 203.388 203.621C203.417 200.697 203.504 197.281 203.533 193.634C203.533 189.987 203.562 186.079 203.591 182.171C203.591 178.263 203.562 174.384 203.533 170.707C203.533 167.06 203.417 163.644 203.388 160.72C203.36 157.796 203.244 155.365 203.215 153.657C203.157 151.949 203.128 150.965 203.128 150.965C203.128 150.965 203.099 151.949 203.041 153.657C203.012 155.365 202.896 157.796 202.867 160.72C202.838 163.644 202.723 167.06 202.723 170.707C202.723 174.355 202.694 178.263 202.665 182.171C202.665 186.079 202.723 189.958 202.723 193.634C202.723 197.281 202.838 200.697 202.867 203.621Z" fill="#202837"/>
<path d="M200.725 213.377C200.725 213.377 200.754 212.392 200.812 210.684C200.87 208.976 200.957 206.545 201.044 203.621C201.102 200.697 201.189 197.281 201.276 193.634C201.333 189.987 201.391 186.079 201.478 182.171C201.507 178.263 201.536 174.384 201.565 170.707C201.565 167.06 201.565 163.644 201.565 160.72C201.565 157.796 201.507 155.365 201.507 153.657C201.507 151.949 201.507 150.965 201.507 150.965C201.507 150.965 201.478 151.949 201.42 153.657C201.362 155.365 201.247 157.796 201.189 160.72C201.131 163.644 201.044 167.06 200.957 170.707C200.899 174.355 200.841 178.263 200.754 182.171C200.725 186.079 200.697 189.958 200.668 193.634C200.668 197.281 200.668 200.697 200.668 203.621C200.668 206.545 200.697 208.976 200.725 210.684C200.725 212.392 200.725 213.377 200.725 213.377Z" fill="#202837"/>
<path d="M204.72 182.171C204.778 186.079 204.865 189.958 204.981 193.634C205.068 197.281 205.241 200.697 205.328 203.621C205.415 206.545 205.589 208.976 205.676 210.684C205.791 212.392 205.849 213.377 205.849 213.377C205.849 213.377 205.878 212.392 205.936 210.684C205.936 208.976 206.052 206.545 206.052 203.621C206.052 200.697 206.11 197.281 206.11 193.634C206.11 189.987 206.052 186.079 206.023 182.171C205.965 178.263 205.878 174.384 205.763 170.707C205.676 167.06 205.502 163.644 205.415 160.72C205.328 157.796 205.155 155.365 205.068 153.657C204.952 151.949 204.894 150.965 204.894 150.965C204.894 150.965 204.865 151.949 204.807 153.657C204.807 155.365 204.691 157.796 204.691 160.72C204.691 163.644 204.634 167.06 204.634 170.707C204.634 174.355 204.691 178.263 204.72 182.171Z" fill="#202837"/>
<path d="M160.459 210.684C160.488 208.976 160.603 206.545 160.632 203.621C160.661 200.697 160.748 197.281 160.777 193.634C160.777 189.987 160.806 186.079 160.835 182.171C160.835 178.263 160.806 174.384 160.777 170.707C160.777 167.06 160.661 163.644 160.632 160.72C160.603 157.796 160.488 155.365 160.459 153.657C160.401 151.949 160.372 150.965 160.372 150.965C160.372 150.965 160.343 151.949 160.285 153.657C160.256 155.365 160.14 157.796 160.111 160.72C160.082 163.644 159.966 167.06 159.966 170.707C159.966 174.355 159.938 178.263 159.909 182.171C159.909 186.079 159.966 189.958 159.966 193.634C159.966 197.281 160.082 200.697 160.111 203.621C160.169 206.545 160.256 208.976 160.285 210.684C160.343 212.392 160.372 213.377 160.372 213.377C160.372 213.377 160.401 212.392 160.459 210.684Z" fill="#202837"/>
<path d="M158.722 150.965C158.722 150.965 158.693 151.949 158.635 153.657C158.577 155.365 158.461 157.796 158.404 160.72C158.346 163.644 158.259 167.06 158.172 170.707C158.114 174.355 158.056 178.263 157.969 182.171C157.94 186.079 157.911 189.958 157.882 193.634C157.882 197.281 157.882 200.697 157.882 203.621C157.882 206.545 157.911 208.976 157.94 210.684C157.94 212.392 157.94 213.377 157.94 213.377C157.94 213.377 157.969 212.392 158.027 210.684C158.085 208.976 158.172 206.545 158.259 203.621C158.317 200.697 158.404 197.281 158.49 193.634C158.548 189.987 158.606 186.079 158.693 182.171C158.722 178.263 158.751 174.384 158.78 170.707C158.78 167.06 158.78 163.644 158.78 160.72C158.78 157.796 158.722 155.365 158.722 153.657C158.722 151.949 158.722 150.965 158.722 150.965Z" fill="#202837"/>
<path d="M161.964 182.171C162.022 186.079 162.109 189.958 162.225 193.634C162.311 197.281 162.485 200.697 162.572 203.621C162.659 206.545 162.832 208.976 162.919 210.684C163.035 212.392 163.093 213.377 163.093 213.377C163.093 213.377 163.122 212.392 163.18 210.684C163.18 208.976 163.296 206.545 163.296 203.621C163.296 200.697 163.354 197.281 163.354 193.634C163.354 189.987 163.296 186.079 163.267 182.171C163.209 178.263 163.122 174.384 163.006 170.707C162.919 167.06 162.746 163.644 162.659 160.72C162.572 157.796 162.398 155.365 162.311 153.657C162.196 151.949 162.138 150.965 162.138 150.965C162.138 150.965 162.109 151.949 162.051 153.657C162.051 155.365 161.935 157.796 161.935 160.72C161.935 163.644 161.877 167.06 161.877 170.707C161.877 174.355 161.935 178.263 161.964 182.171Z" fill="#202837"/>
<path d="M117.702 210.684C117.731 208.976 117.847 206.545 117.876 203.621C117.905 200.697 117.992 197.281 118.021 193.634C118.021 189.987 118.05 186.079 118.079 182.171C118.079 178.263 118.05 174.384 118.021 170.707C118.021 167.06 117.905 163.644 117.876 160.72C117.847 157.796 117.731 155.365 117.702 153.657C117.644 151.949 117.616 150.965 117.616 150.965C117.616 150.965 117.587 151.949 117.529 153.657C117.5 155.365 117.384 157.796 117.355 160.72C117.326 163.644 117.21 167.06 117.21 170.707C117.21 174.355 117.181 178.263 117.152 182.171C117.152 186.079 117.21 189.958 117.21 193.634C117.21 197.281 117.326 200.697 117.355 203.621C117.413 206.545 117.5 208.976 117.529 210.684C117.587 212.392 117.616 213.377 117.616 213.377C117.616 213.377 117.644 212.392 117.702 210.684Z" fill="#202837"/>
<path d="M115.966 150.965C115.966 150.965 115.937 151.949 115.879 153.657C115.821 155.365 115.705 157.796 115.647 160.72C115.589 163.644 115.503 167.06 115.416 170.707C115.358 174.355 115.3 178.263 115.213 182.171C115.184 186.079 115.155 189.958 115.126 193.634C115.126 197.281 115.126 200.697 115.126 203.621C115.126 206.545 115.155 208.976 115.184 210.684C115.184 212.392 115.184 213.377 115.184 213.377C115.184 213.377 115.213 212.392 115.271 210.684C115.329 208.976 115.416 206.545 115.503 203.621C115.56 200.697 115.647 197.281 115.734 193.634C115.792 189.987 115.85 186.079 115.937 182.171C115.966 178.263 115.995 174.384 116.024 170.707C116.024 167.06 116.024 163.644 116.024 160.72C116.024 157.796 115.966 155.365 115.966 153.657C115.966 151.949 115.966 150.965 115.966 150.965Z" fill="#202837"/>
<path d="M119.179 182.171C119.237 186.079 119.324 189.958 119.439 193.634C119.526 197.281 119.7 200.697 119.787 203.621C119.903 206.545 120.047 208.976 120.134 210.684C120.25 212.392 120.308 213.377 120.308 213.377C120.308 213.377 120.337 212.392 120.395 210.684C120.395 208.976 120.51 206.545 120.51 203.621C120.51 200.697 120.568 197.281 120.568 193.634C120.568 189.987 120.51 186.079 120.482 182.171C120.424 178.263 120.337 174.384 120.221 170.707C120.134 167.06 119.96 163.644 119.874 160.72C119.787 157.796 119.613 155.365 119.526 153.657C119.41 151.949 119.353 150.965 119.353 150.965C119.353 150.965 119.324 151.949 119.266 153.657C119.266 155.365 119.15 157.796 119.15 160.72C119.15 163.644 119.092 167.06 119.092 170.707C119.092 174.355 119.15 178.263 119.179 182.171Z" fill="#202837"/>
<path d="M129.542 128.125C136.664 128.183 144.943 128.298 153.83 128.327C162.717 128.327 172.183 128.385 181.678 128.414C191.144 128.385 200.639 128.356 209.526 128.327C218.413 128.327 226.721 128.183 233.813 128.125C240.934 128.067 246.84 127.922 251.008 127.864C255.148 127.806 257.521 127.748 257.521 127.748C257.521 127.748 255.148 127.719 251.008 127.633C246.869 127.575 240.934 127.43 233.813 127.372C226.692 127.314 218.413 127.198 209.526 127.169C200.639 127.169 191.173 127.112 181.678 127.083C172.212 127.112 162.717 127.141 153.83 127.169C144.943 127.169 136.635 127.314 129.542 127.372C122.421 127.43 116.516 127.575 112.347 127.633C108.208 127.691 105.834 127.748 105.834 127.748C105.834 127.748 108.208 127.777 112.347 127.864C116.487 127.922 122.421 128.067 129.542 128.125Z" fill="#202837"/>
<path d="M129.542 140.891C136.664 140.949 144.943 141.065 153.83 141.093C162.717 141.093 172.183 141.151 181.678 141.18C191.144 141.151 200.639 141.122 209.526 141.093C218.413 141.093 226.721 140.949 233.813 140.891C240.934 140.833 246.84 140.688 251.008 140.63C255.148 140.572 257.521 140.514 257.521 140.514C257.521 140.514 255.148 140.486 251.008 140.399C246.869 140.341 240.934 140.196 233.813 140.138C226.692 140.08 218.413 139.964 209.526 139.936C200.639 139.936 191.173 139.878 181.678 139.849C172.212 139.878 162.717 139.907 153.83 139.936C144.943 139.936 136.635 140.08 129.542 140.138C122.421 140.196 116.516 140.341 112.347 140.399C108.208 140.457 105.834 140.514 105.834 140.514C105.834 140.514 108.208 140.543 112.347 140.63C116.487 140.688 122.421 140.833 129.542 140.891Z" fill="#202837"/>
<path d="M103.981 149.257C107.542 149.025 109.916 148.678 109.916 148.678C109.916 148.678 107.542 148.33 103.981 148.099C102.186 147.983 100.131 147.867 97.9021 147.78C96.8021 147.78 95.6442 147.694 94.4573 147.694C93.2994 147.694 92.1125 147.694 90.9257 147.665C89.7388 147.665 88.5519 147.665 87.394 147.694C86.2361 147.694 85.0782 147.751 83.9492 147.78C81.7202 147.838 79.636 147.954 77.8701 148.099C74.3095 148.33 71.9358 148.678 71.9358 148.678C71.9358 148.678 74.3095 149.025 77.8701 149.257C79.6649 149.373 81.7202 149.488 83.9492 149.575C85.0492 149.575 86.2071 149.662 87.394 149.662C88.5519 149.662 89.7388 149.662 90.9257 149.691C92.1125 149.691 93.2994 149.691 94.4573 149.662C95.6152 149.662 96.7732 149.604 97.9021 149.575C100.131 149.517 102.215 149.401 103.981 149.257Z" fill="#202837"/>
<path d="M292.78 155.915H279.493V189.755H292.78V155.915ZM281.461 157.883H285.659L285.89 172.531L281.49 172.357V157.883H281.461ZM281.461 187.787V173.226L285.89 173.052L286.122 187.787H281.461ZM290.783 187.787H286.122L286.354 173.023L290.783 172.849V187.787ZM290.783 172.734L286.383 172.56L286.614 157.883H290.812V172.734H290.783Z" fill="#202837"/>
<path d="M87.5967 189.755V155.915H74.3096V182.663C74.7438 185.036 75.178 187.381 75.6412 189.755H87.5677H87.5967ZM81.7203 157.883H85.5993V172.734L81.4887 172.56L81.7203 157.883ZM81.4887 173.023L85.6282 172.849V187.787H81.2571L81.4887 173.023ZM76.278 157.883H80.765L80.9966 172.531L76.278 172.328V157.883ZM76.278 173.255L80.9966 173.052L81.2281 187.787H76.278V173.255Z" fill="#202837"/>
<path d="M91.2441 155.915V189.755H104.531V155.915H91.2441ZM93.2126 157.883H97.6995L97.9311 172.531L93.2126 172.328V157.883ZM93.2126 187.787V173.255L97.9311 173.052L98.1627 187.787H93.2126ZM102.534 187.787H98.1627L98.3943 173.023L102.534 172.849V187.787ZM102.534 172.734L98.4232 172.56L98.6548 157.883H102.534V172.734Z" fill="#202837"/>
<path d="M113.65 129.804V138.112H252.658V129.804H113.65ZM250.429 132.988V135.854H115.879V134.725C170.069 133.393 240.818 133.046 250.429 132.988Z" fill="#202837"/>
<path d="M287.28 213.377C287.28 213.377 287.309 213.145 287.367 212.769C287.396 212.363 287.483 211.813 287.541 211.148C287.656 209.787 287.743 207.992 287.743 206.197C287.743 204.403 287.656 202.608 287.541 201.247C287.483 200.582 287.396 200.003 287.367 199.626C287.309 199.221 287.28 199.018 287.28 199.018C287.28 199.018 287.251 199.25 287.193 199.626C287.164 200.032 287.077 200.582 287.02 201.247C286.904 202.608 286.817 204.403 286.817 206.197C286.817 207.992 286.904 209.787 287.02 211.148C287.077 211.813 287.164 212.392 287.193 212.769C287.251 213.174 287.28 213.377 287.28 213.377Z" fill="#202837"/>
<path d="M277.987 199.568C277.93 199.163 277.901 198.96 277.901 198.96C277.901 198.96 277.872 199.192 277.814 199.568C277.785 199.974 277.698 200.524 277.64 201.189C277.524 202.55 277.437 204.345 277.437 206.14C277.437 207.934 277.524 209.729 277.64 211.09C277.698 211.755 277.785 212.334 277.814 212.711C277.872 213.116 277.901 213.319 277.901 213.319C277.901 213.319 277.93 213.087 277.987 212.711C278.016 212.306 278.103 211.755 278.161 211.09C278.277 209.729 278.364 207.934 278.364 206.14C278.364 204.345 278.277 202.55 278.161 201.189C278.103 200.524 278.016 199.945 277.987 199.568Z" fill="#202837"/>
<path d="M268.579 199.568C268.521 199.163 268.492 198.96 268.492 198.96C268.492 198.96 268.464 199.192 268.406 199.568C268.377 199.974 268.29 200.524 268.232 201.189C268.116 202.55 268.029 204.345 268.029 206.14C268.029 207.934 268.116 209.729 268.232 211.09C268.29 211.755 268.377 212.334 268.406 212.711C268.464 213.116 268.492 213.319 268.492 213.319C268.492 213.319 268.521 213.087 268.579 212.711C268.608 212.306 268.695 211.755 268.753 211.09C268.869 209.729 268.956 207.934 268.956 206.14C268.956 204.345 268.869 202.55 268.753 201.189C268.695 200.524 268.608 199.945 268.579 199.568Z" fill="#202837"/>
<path d="M98.3362 212.74C98.3941 213.145 98.423 213.348 98.423 213.348C98.423 213.348 98.452 213.116 98.5098 212.74C98.5388 212.334 98.6256 211.784 98.6835 211.119C98.7993 209.758 98.8862 207.963 98.8862 206.168C98.8862 204.374 98.7993 202.579 98.6835 201.218C98.6256 200.553 98.5388 199.974 98.5098 199.597C98.452 199.192 98.423 198.989 98.423 198.989C98.423 198.989 98.3941 199.221 98.3362 199.597C98.3072 200.003 98.2204 200.553 98.1625 201.218C98.0467 202.579 97.9598 204.374 97.9598 206.168C97.9598 207.963 98.0467 209.758 98.1625 211.119C98.2204 211.784 98.3072 212.363 98.3362 212.74Z" fill="#202837"/>
<path d="M88.9281 212.74C88.986 213.145 89.0149 213.348 89.0149 213.348C89.0149 213.348 89.0439 213.116 89.1018 212.74C89.1307 212.334 89.2176 211.784 89.2755 211.119C89.3912 209.758 89.4781 207.963 89.4781 206.168C89.4781 204.374 89.3912 202.579 89.2755 201.218C89.2176 200.553 89.1307 199.974 89.1018 199.597C89.0439 199.192 89.0149 198.989 89.0149 198.989C89.0149 198.989 88.986 199.221 88.9281 199.597C88.8991 200.003 88.8123 200.553 88.7544 201.218C88.6386 202.579 88.5518 204.374 88.5518 206.168C88.5518 207.963 88.6386 209.758 88.7544 211.119C88.8123 211.784 88.8991 212.363 88.9281 212.74Z" fill="#202837"/>
<path d="M80.128 206.168C80.128 204.374 80.0412 202.579 79.9254 201.218C79.8675 200.553 79.7806 199.974 79.7517 199.597C79.6938 199.192 79.6648 198.989 79.6648 198.989C79.6648 198.989 79.6359 199.221 79.578 199.597C79.549 200.003 79.4622 200.553 79.4043 201.218C79.2885 202.434 79.2306 203.997 79.2017 205.59C79.4911 206.747 79.7806 207.905 80.0701 209.063C80.099 208.137 80.128 207.153 80.128 206.168Z" fill="#202837"/>
<path d="M80.5624 187.294V173.544L76.8571 187.294H80.5624Z" fill="#202837"/>
<path d="M85.2809 187.294V173.544L81.6045 187.294H85.2809Z" fill="#202837"/>
<path d="M80.5624 172.155V158.404L76.8571 172.155H80.5624Z" fill="#202837"/>
<path d="M85.2809 172.155V158.404L81.6045 172.155H85.2809Z" fill="#202837"/>
<path d="M97.4101 187.294V173.544L93.7047 187.294H97.4101Z" fill="#202837"/>
<path d="M102.129 173.544L98.4521 187.294H102.129V173.544Z" fill="#202837"/>
<path d="M97.4101 172.155V158.404L93.7047 172.155H97.4101Z" fill="#202837"/>
<path d="M102.129 172.155V158.404L98.4521 172.155H102.129Z" fill="#202837"/>
<path d="M268.637 187.294V173.544L264.932 187.294H268.637Z" fill="#202837"/>
<path d="M273.356 187.294V173.544L269.679 187.294H273.356Z" fill="#202837"/>
<path d="M268.637 172.155V158.404L264.932 172.155H268.637Z" fill="#202837"/>
<path d="M273.356 172.155V158.404L269.679 172.155H273.356Z" fill="#202837"/>
<path d="M285.485 187.294V173.544L281.809 187.294H285.485Z" fill="#202837"/>
<path d="M290.203 173.544L286.527 187.294H290.203V173.544Z" fill="#202837"/>
<path d="M285.485 172.155V158.404L281.809 172.155H285.485Z" fill="#202837"/>
<path d="M290.203 172.155V158.404L286.527 172.155H290.203Z" fill="#202837"/>
<path d="M212.594 219.485C202.723 219.485 192.186 219.456 181.649 219.427C171.112 219.427 160.575 219.456 150.703 219.485C140.832 219.542 131.627 219.6 123.724 219.629C107.918 219.803 97.3811 219.89 97.3811 219.89C97.3811 219.89 107.918 220.006 123.724 220.15C131.627 220.179 140.832 220.237 150.703 220.295C160.575 220.295 171.112 220.324 181.649 220.353C192.186 220.353 202.723 220.324 212.594 220.295C222.465 220.237 231.671 220.179 239.574 220.15C255.379 219.977 265.916 219.89 265.916 219.89C265.916 219.89 255.379 219.774 239.574 219.629C231.671 219.6 222.465 219.542 212.594 219.485Z" fill="#202837"/>
<path d="M117.294 266.77C115.555 266.77 114.23 266.282 113.318 265.304C112.405 264.304 111.949 262.881 111.949 261.035V249.041C111.949 247.194 112.405 245.782 113.318 244.804C114.23 243.805 115.555 243.305 117.294 243.305C119.032 243.305 120.357 243.805 121.27 244.804C122.182 245.782 122.639 247.194 122.639 249.041V250.997H119.249V248.813C119.249 247.314 118.63 246.564 117.391 246.564C116.153 246.564 115.534 247.314 115.534 248.813V261.295C115.534 262.773 116.153 263.511 117.391 263.511C118.63 263.511 119.249 262.773 119.249 261.295V256.83H117.457V253.571H122.639V261.035C122.639 262.881 122.182 264.304 121.27 265.304C120.357 266.282 119.032 266.77 117.294 266.77ZM130.122 266.77C128.362 266.77 127.015 266.271 126.081 265.271C125.147 264.272 124.68 262.86 124.68 261.035V249.041C124.68 247.216 125.147 245.804 126.081 244.804C127.015 243.805 128.362 243.305 130.122 243.305C131.882 243.305 133.229 243.805 134.163 244.804C135.098 245.804 135.565 247.216 135.565 249.041V261.035C135.565 262.86 135.098 264.272 134.163 265.271C133.229 266.271 131.882 266.77 130.122 266.77ZM130.122 263.511C131.361 263.511 131.98 262.762 131.98 261.263V248.813C131.98 247.314 131.361 246.564 130.122 246.564C128.884 246.564 128.264 247.314 128.264 248.813V261.263C128.264 262.762 128.884 263.511 130.122 263.511ZM136.98 243.631H140.598L142.945 261.328H143.01L145.356 243.631H148.648L145.193 266.445H140.435L136.98 243.631ZM150.37 243.631H155.65C157.431 243.631 158.767 244.109 159.658 245.065C160.549 246.021 160.994 247.422 160.994 249.269V251.518C160.994 253.365 160.549 254.766 159.658 255.722C158.767 256.678 157.431 257.156 155.65 257.156H153.955V266.445H150.37V243.631ZM155.65 253.897C156.236 253.897 156.671 253.734 156.953 253.408C157.257 253.082 157.409 252.528 157.409 251.746V249.041C157.409 248.259 157.257 247.705 156.953 247.379C156.671 247.053 156.236 246.89 155.65 246.89H153.955V253.897H155.65ZM162.941 243.631H168.254C170.101 243.631 171.448 244.066 172.295 244.935C173.142 245.782 173.566 247.097 173.566 248.878V250.28C173.566 252.648 172.784 254.147 171.219 254.777V254.842C172.089 255.103 172.697 255.635 173.045 256.439C173.414 257.243 173.599 258.319 173.599 259.666V263.674C173.599 264.326 173.62 264.859 173.664 265.271C173.707 265.662 173.816 266.053 173.99 266.445H170.34C170.209 266.075 170.122 265.728 170.079 265.402C170.035 265.076 170.014 264.489 170.014 263.642V259.47C170.014 258.427 169.84 257.699 169.492 257.287C169.166 256.874 168.591 256.667 167.765 256.667H166.526V266.445H162.941V243.631ZM167.83 253.408C168.547 253.408 169.079 253.224 169.427 252.854C169.796 252.485 169.981 251.866 169.981 250.997V249.237C169.981 248.411 169.829 247.814 169.525 247.444C169.242 247.075 168.786 246.89 168.156 246.89H166.526V253.408H167.83ZM181.268 266.77C179.508 266.77 178.161 266.271 177.227 265.271C176.292 264.272 175.825 262.86 175.825 261.035V249.041C175.825 247.216 176.292 245.804 177.227 244.804C178.161 243.805 179.508 243.305 181.268 243.305C183.028 243.305 184.375 243.805 185.309 244.804C186.243 245.804 186.711 247.216 186.711 249.041V261.035C186.711 262.86 186.243 264.272 185.309 265.271C184.375 266.271 183.028 266.77 181.268 266.77ZM181.268 263.511C182.506 263.511 183.126 262.762 183.126 261.263V248.813C183.126 247.314 182.506 246.564 181.268 246.564C180.029 246.564 179.41 247.314 179.41 248.813V261.263C179.41 262.762 180.029 263.511 181.268 263.511ZM188.613 253.408H195.783V256.667H188.613V253.408ZM198.335 246.89H194.587V243.631H205.668V246.89H201.92V266.445H198.335V246.89ZM207.404 243.631H212.716C214.563 243.631 215.91 244.066 216.757 244.935C217.604 245.782 218.028 247.097 218.028 248.878V250.28C218.028 252.648 217.246 254.147 215.682 254.777V254.842C216.551 255.103 217.159 255.635 217.507 256.439C217.876 257.243 218.061 258.319 218.061 259.666V263.674C218.061 264.326 218.082 264.859 218.126 265.271C218.169 265.662 218.278 266.053 218.452 266.445H214.802C214.671 266.075 214.584 265.728 214.541 265.402C214.497 265.076 214.476 264.489 214.476 263.642V259.47C214.476 258.427 214.302 257.699 213.954 257.287C213.628 256.874 213.053 256.667 212.227 256.667H210.989V266.445H207.404V243.631ZM212.292 253.408C213.009 253.408 213.541 253.224 213.889 252.854C214.258 252.485 214.443 251.866 214.443 250.997V249.237C214.443 248.411 214.291 247.814 213.987 247.444C213.704 247.075 213.248 246.89 212.618 246.89H210.989V253.408H212.292ZM223.318 243.631H228.174L231.89 266.445H228.305L227.653 261.914V261.98H223.579L222.927 266.445H219.603L223.318 243.631ZM227.229 258.884L225.632 247.607H225.567L224.003 258.884H227.229ZM238.617 266.77C236.9 266.77 235.586 266.282 234.673 265.304C233.782 264.326 233.337 262.947 233.337 261.165V248.911C233.337 247.129 233.782 245.75 234.673 244.772C235.586 243.794 236.9 243.305 238.617 243.305C240.333 243.305 241.637 243.794 242.528 244.772C243.44 245.75 243.896 247.129 243.896 248.911V251.323H240.507V248.683C240.507 247.27 239.91 246.564 238.715 246.564C237.52 246.564 236.922 247.27 236.922 248.683V261.426C236.922 262.816 237.52 263.511 238.715 263.511C239.91 263.511 240.507 262.816 240.507 261.426V257.938H243.896V261.165C243.896 262.947 243.44 264.326 242.528 265.304C241.637 266.282 240.333 266.77 238.617 266.77ZM246.041 243.631H249.626V253.245L254.189 243.631H257.774L253.505 252.007L257.839 266.445H254.091L251.06 256.276L249.626 259.177V266.445H246.041V243.631Z" fill="#202837"/>
</g>
<defs>
<clipPath id="clip0_4_308">
<rect width="369" height="358.781" fill="white" transform="translate(0 0.261475)"/>
</clipPath>
</defs>
</svg>
